<?xml version="1.0" encoding="UTF-8"?><svg xmlns="http://www.w3.org/2000/svg" viewBox="0 0 300 300"><defs><style>.cls-1{fill:#fff;}.cls-2{fill:#f5f5f5;}.cls-3{fill:#455a64;}.cls-4{fill:#e0e0e0;}.cls-5{fill:#bfe5ef;}.cls-6{fill:#ffc19d;}.cls-7{opacity:.6;}.cls-7,.cls-8{fill:none;}.cls-9{fill:#418bce;}.cls-10{fill:#ff9c6a;}.cls-8{opacity:.3;}.cls-11{fill:#004681;}.cls-12{fill:#00277f;}.cls-13{fill:#13a01a;}.cls-14{fill:#263238;}</style></defs><g id="bg"><rect class="cls-5" width="300" height="300"/></g><g id="obj"><rect class="cls-4" x="42.8" y="26.8" width="184.5" height="261.9" rx="7.5" ry="7.5"/><path class="cls-14" d="m219.9,288.7s.2,0,.6,0c.4,0,.9-.1,1.7-.3.7-.2,1.6-.6,2.4-1.3.9-.7,1.7-1.7,2.2-3.1.3-.7.4-1.4.5-2.3,0-.8,0-1.7,0-2.6,0-1.8,0-3.8,0-5.9,0-4.3,0-9.2,0-14.8,0-22.3,0-54.5,0-94.3,0-19.9,0-41.7,0-65.1,0-11.7,0-23.8,0-36.3,0-6.2,0-12.6,0-19,0-3.2,0-6.4,0-9.7,0-1.6-.6-3.2-1.6-4.4-1-1.2-2.4-2.1-4-2.5-.8-.2-1.6-.2-2.4-.2-.8,0-1.7,0-2.5,0-1.7,0-3.3,0-5,0-3.3,0-6.7,0-10.1,0-6.7,0-13.6,0-20.4,0-13.8,0-27.8,0-42.2,0-28.6,0-58.3,0-88.7,0-1.9,0-3.7.7-5,2-1.3,1.3-2.2,3.1-2.2,4.9,0,3.8,0,7.5,0,11.3,0,7.5,0,15,0,22.4,0,14.8,0,29.4,0,43.7,0,28.7,0,56.3,0,82.6,0,26.3,0,51.3,0,74.8,0,2.9,0,5.8,0,8.7,0,1.4,0,2.9,0,4.3,0,1.4.5,2.8,1.3,3.9.8,1.1,1.9,2,3.2,2.6.6.3,1.3.4,2,.5.7,0,1.4,0,2.1,0,2.8,0,5.5,0,8.2,0,10.9,0,21.3,0,31.3,0,39.8,0,72,0,94.3,0,11.1,0,19.8,0,25.6,0,2.9,0,5.2,0,6.7,0,1.5,0,2.3,0,2.3,0,0,0-.8,0-2.3,0-1.5,0-3.7,0-6.7,0-5.9,0-14.5,0-25.6,0-22.3,0-54.5,0-94.3,0-10,0-20.4,0-31.3,0-2.7,0-5.5,0-8.2,0-.7,0-1.4,0-2.1,0-.7,0-1.4-.3-2.1-.5-1.3-.5-2.5-1.5-3.3-2.6-.8-1.2-1.3-2.6-1.4-4,0-1.4,0-2.9,0-4.3,0-2.9,0-5.8,0-8.7,0-23.4,0-48.4,0-74.8,0-26.3,0-54,0-82.6,0-14.3,0-28.9,0-43.7,0-7.4,0-14.9,0-22.4,0-3.8,0-7.5,0-11.3,0-1.9.9-3.8,2.4-5.1,1.4-1.3,3.3-2.1,5.3-2.1,30.4,0,60,0,88.7,0,14.3,0,28.4,0,42.2,0,6.9,0,13.7,0,20.4,0,3.4,0,6.7,0,10.1,0,1.7,0,3.3,0,5,0,.8,0,1.7,0,2.5,0,.8,0,1.7,0,2.5.2,1.6.4,3.1,1.3,4.2,2.6,1,1.3,1.7,2.9,1.7,4.6,0,3.3,0,6.5,0,9.7,0,6.4,0,12.7,0,19,0,12.5,0,24.6,0,36.3,0,23.4,0,45.2,0,65.1,0,39.8,0,72,0,94.3,0,5.6,0,10.5,0,14.8,0,2.1,0,4.1,0,5.9,0,.9,0,1.8,0,2.6,0,.8-.2,1.6-.5,2.3-.5,1.4-1.4,2.4-2.3,3.1-.9.7-1.7,1.1-2.5,1.3-.7.2-1.3.3-1.7.3-.4,0-.6,0-.6,0Z"/><g class="cls-8"><polygon points="60.3 282.2 215 281.3 216.8 251.4 212.1 233.4 58.9 257.3 60.3 282.2"/></g><path class="cls-14" d="m219.9,288.7s.2,0,.6,0c.4,0,.9-.1,1.7-.3.7-.2,1.6-.6,2.4-1.3.9-.7,1.7-1.7,2.2-3.1.3-.7.4-1.4.5-2.3,0-.8,0-1.7,0-2.6,0-1.8,0-3.8,0-5.9,0-4.3,0-9.2,0-14.8,0-22.3,0-54.5,0-94.3,0-19.9,0-41.7,0-65.1,0-11.7,0-23.8,0-36.3,0-6.2,0-12.6,0-19,0-3.2,0-6.4,0-9.7,0-1.6-.6-3.2-1.6-4.4-1-1.2-2.4-2.1-4-2.5-.8-.2-1.6-.2-2.4-.2-.8,0-1.7,0-2.5,0-1.7,0-3.3,0-5,0-3.3,0-6.7,0-10.1,0-6.7,0-13.6,0-20.4,0-13.8,0-27.8,0-42.2,0-28.6,0-58.3,0-88.7,0-1.9,0-3.7.7-5,2-1.3,1.3-2.2,3.1-2.2,4.9,0,3.8,0,7.5,0,11.3,0,7.5,0,15,0,22.4,0,14.8,0,29.4,0,43.7,0,28.7,0,56.3,0,82.6,0,26.3,0,51.3,0,74.8,0,2.9,0,5.8,0,8.7,0,1.4,0,2.9,0,4.3,0,1.4.5,2.8,1.3,3.9.8,1.1,1.9,2,3.2,2.6.6.3,1.3.4,2,.5.7,0,1.4,0,2.1,0,2.8,0,5.5,0,8.2,0,10.9,0,21.3,0,31.3,0,39.8,0,72,0,94.3,0,11.1,0,19.8,0,25.6,0,2.9,0,5.2,0,6.7,0,1.5,0,2.3,0,2.3,0,0,0-.8,0-2.3,0-1.5,0-3.7,0-6.7,0-5.9,0-14.5,0-25.6,0-22.3,0-54.5,0-94.3,0-10,0-20.4,0-31.3,0-2.7,0-5.5,0-8.2,0-.7,0-1.4,0-2.1,0-.7,0-1.4-.3-2.1-.5-1.3-.5-2.5-1.5-3.3-2.6-.8-1.2-1.3-2.6-1.4-4,0-1.4,0-2.9,0-4.3,0-2.9,0-5.8,0-8.7,0-23.4,0-48.4,0-74.8,0-26.3,0-54,0-82.6,0-14.3,0-28.9,0-43.7,0-7.4,0-14.9,0-22.4,0-3.8,0-7.5,0-11.3,0-1.9.9-3.8,2.4-5.1,1.4-1.3,3.3-2.1,5.3-2.1,30.4,0,60,0,88.7,0,14.3,0,28.4,0,42.2,0,6.9,0,13.7,0,20.4,0,3.4,0,6.7,0,10.1,0,1.7,0,3.3,0,5,0,.8,0,1.7,0,2.5,0,.8,0,1.7,0,2.5.2,1.6.4,3.1,1.3,4.2,2.6,1,1.3,1.7,2.9,1.7,4.6,0,3.3,0,6.5,0,9.7,0,6.4,0,12.7,0,19,0,12.5,0,24.6,0,36.3,0,23.4,0,45.2,0,65.1,0,39.8,0,72,0,94.3,0,5.6,0,10.5,0,14.8,0,2.1,0,4.1,0,5.9,0,.9,0,1.8,0,2.6,0,.8-.2,1.6-.5,2.3-.5,1.4-1.4,2.4-2.3,3.1-.9.7-1.7,1.1-2.5,1.3-.7.2-1.3.3-1.7.3-.4,0-.6,0-.6,0Z"/><g class="cls-8"><polygon points="60.3 282.2 215 281.3 216.8 251.4 212.1 233.4 58.9 257.3 60.3 282.2"/></g><rect class="cls-1" x="52.1" y="37.3" width="165.9" height="239"/><path class="cls-14" d="m218,276.3c0-1.4,0-98-.2-239l.2.2c-50.3,0-106.6,0-165.8,0h0l.2-.2c0,89.8,0,172.7,0,239h-.1c100.9,0,164.7,0,165.9,0-1.1,0-65,0-165.9.1h-.1s0-.1,0-.1c0-66.3,0-149.3,0-239v-.2h.2c59.3,0,115.5,0,165.8,0h.2s0,.2,0,.2c0,141.1-.2,237.6-.2,239Z"/><rect class="cls-13" x="96" y="50.7" width="83.2" height="7.7"/><rect class="cls-4" x="61.5" y="68.7" width="36.3" height="7.7"/><rect class="cls-2" x="61.5" y="82.3" width="72.7" height="7.7"/><rect class="cls-2" x="102.5" y="93" width="72.7" height="7.7"/><rect class="cls-2" x="61.5" y="92.8" width="34.6" height="7.7"/><rect class="cls-2" x="140.9" y="82.1" width="34.6" height="7.7"/><rect class="cls-2" x="179.3" y="82.1" width="26.3" height="7.7"/><rect class="cls-2" x="179.3" y="93" width="26.3" height="7.7"/><rect class="cls-4" x="61.5" y="209.1" width="143.5" height="8.7"/><rect class="cls-4" x="61.5" y="106.4" width="143.5" height="8.7"/><rect class="cls-4" x="61.5" y="167.8" width="57.2" height="8.7"/><rect class="cls-4" x="135" y="167.8" width="71.5" height="8.7"/><path class="cls-14" d="m118.6,181.9c0,.1-12.8.2-28.6.2s-28.6,0-28.6-.2,12.8-.2,28.6-.2,28.6,0,28.6.2Z"/><path class="cls-14" d="m117.7,188.6c0,.1-12.6.2-28.1.2s-28.1,0-28.1-.2,12.6-.2,28.1-.2,28.1,0,28.1.2Z"/><path class="cls-14" d="m118.2,195.5c0,.1-12.7.2-28.4.2s-28.4,0-28.4-.2,12.7-.2,28.4-.2,28.4,0,28.4.2Z"/><path class="cls-14" d="m118.2,202.1c0,.1-12.7.2-28.4.2s-28.4,0-28.4-.2,12.7-.2,28.4-.2,28.4,0,28.4.2Z"/><path class="cls-14" d="m205.4,183.5c0,.1-13.3.2-29.6.2s-29.6,0-29.6-.2,13.3-.2,29.6-.2,29.6,0,29.6.2Z"/><path class="cls-14" d="m141.6,185.6s0-.5,0-1.2c0-.8,0-1.8,0-3.1l.2.2c-1.2,0-2.6,0-4.1,0,0,0,.3-.3.2-.2h0c0,.1,0,.3,0,.3v.3c0,.2,0,.4,0,.6,0,.4,0,.7,0,1.1,0,.7,0,1.4,0,2l-.2-.2c1.2,0,2.2,0,2.9,0,.7,0,1.1,0,1.2,0,0,0-.4,0-1.1,0-.7,0-1.7,0-3,0h-.2s0-.2,0-.2c0-.6,0-1.3,0-2,0-.4,0-.7,0-1.1,0-.2,0-.4,0-.6v-.3s0-.1,0-.1h0c-.2,0,.2-.4.2-.3,1.5,0,2.9,0,4.1,0h.2s0,.2,0,.2c0,1.3,0,2.4,0,3.2,0,.7,0,1.2,0,1.1Z"/><path class="cls-14" d="m205.4,191.7c0,.1-13.3.2-29.6.2s-29.6,0-29.6-.2,13.3-.2,29.6-.2,29.6,0,29.6.2Z"/><path class="cls-14" d="m141.6,193.9s0-.5,0-1.2c0-.8,0-1.8,0-3.1l.2.2c-1.2,0-2.6,0-4.1,0,0,0,.3-.3.2-.2h0c0,.1,0,.3,0,.3v.3c0,.2,0,.4,0,.6,0,.4,0,.7,0,1.1,0,.7,0,1.4,0,2l-.2-.2c1.2,0,2.2,0,2.9,0,.7,0,1.1,0,1.2,0,0,0-.4,0-1.1,0-.7,0-1.7,0-3,0h-.2s0-.2,0-.2c0-.6,0-1.3,0-2,0-.4,0-.7,0-1.1,0-.2,0-.4,0-.6v-.3s0-.1,0-.1h0c-.2,0,.2-.4.2-.3,1.5,0,2.9,0,4.1,0h.2s0,.2,0,.2c0,1.3,0,2.4,0,3.2,0,.7,0,1.2,0,1.1Z"/><path class="cls-14" d="m205.4,200c0,.1-13.3.2-29.6.2s-29.6,0-29.6-.2,13.3-.2,29.6-.2,29.6,0,29.6.2Z"/><path class="cls-14" d="m141.6,202.1s0-.5,0-1.2c0-.8,0-1.8,0-3.1l.2.2c-1.2,0-2.6,0-4.1,0,0,0,.3-.3.2-.2h0c0,.1,0,.3,0,.3v.3c0,.2,0,.4,0,.6,0,.4,0,.7,0,1.1,0,.7,0,1.4,0,2l-.2-.2c1.2,0,2.2,0,2.9,0,.7,0,1.1,0,1.2,0,0,0-.4,0-1.1,0-.7,0-1.7,0-3,0h-.2s0-.2,0-.2c0-.6,0-1.3,0-2,0-.4,0-.7,0-1.1,0-.2,0-.4,0-.6v-.3s0-.1,0-.1h0c-.2,0,.2-.4.2-.3,1.5,0,2.9,0,4.1,0h.2s0,.2,0,.2c0,1.3,0,2.4,0,3.2,0,.7,0,1.2,0,1.1Z"/><path class="cls-14" d="m202.9,161.4s0-.2,0-.7c0-.5,0-1.2,0-2,0-1.8,0-4.5,0-7.9,0-6.9,0-17,0-29.8h.1c-32.3.1-83.6.2-141.3.2h0l.2-.2c0,13.9,0,27.5,0,40.5l-.2-.2c40.4,0,75.7,0,100.9,0,12.6,0,22.7,0,29.6,0,3.5,0,6.1,0,8,0,.9,0,1.6,0,2.1,0,.5,0,.7,0,.7,0,0,0-.2,0-.7,0-.5,0-1.1,0-2,0-1.8,0-4.5,0-7.9,0-6.9,0-17,0-29.6,0-25.2,0-60.6,0-101,0h-.2s0-.2,0-.2c0-13,0-26.6,0-40.5v-.2s.2,0,.2,0h0c57.6,0,108.9,0,141.3,0h.1s0,.1,0,.1c0,12.8,0,23,0,29.9,0,3.5,0,6.1,0,7.9,0,.9,0,1.6,0,2,0,.5,0,.7,0,.7Z"/><path class="cls-14" d="m202.9,131c0,.1-31.5.2-70.4.2s-70.4,0-70.4-.2,31.5-.2,70.4-.2,70.4,0,70.4.2Z"/><path class="cls-14" d="m202.9,141.1c0,.1-31.5.2-70.4.2s-70.4,0-70.4-.2,31.5-.2,70.4-.2,70.4,0,70.4.2Z"/><path class="cls-14" d="m202.9,151.3c0,.1-31.5.2-70.4.2s-70.4,0-70.4-.2,31.5-.2,70.4-.2,70.4,0,70.4.2Z"/><path class="cls-14" d="m78.1,161.7c0,0-.2-9.2-.2-20.5s0-20.5.2-20.5.2,9.2.2,20.5,0,20.5-.2,20.5Z"/><path class="cls-14" d="m125.8,160.5c0,0-.2-8.8-.2-19.6s0-19.6.2-19.6.2,8.8.2,19.6,0,19.6-.2,19.6Z"/><path class="cls-14" d="m176.2,162.3c0,0-.2-9-.2-20.2s0-20.2.2-20.2.2,9,.2,20.2,0,20.2-.2,20.2Z"/><path class="cls-14" d="m201.4,71.8c0,0-21.6.2-48.2.2s-48.2,0-48.2-.2,21.6-.2,48.2-.2,48.2,0,48.2.2Z"/><path class="cls-14" d="m133.4,75.2c0,0-6.3.2-14.2.2s-14.2,0-14.2-.2,6.3-.2,14.2-.2,14.2,0,14.2.2Z"/><path class="cls-14" d="m176,225.3c0,0-25.6.2-57.3.2s-57.3,0-57.3-.2,25.6-.2,57.3-.2,57.3,0,57.3.2Z"/><path class="cls-14" d="m154.5,231s0,0-.2,0c-.2,0-.4,0-.7,0-.6,0-1.5,0-2.7,0-2.4,0-5.8,0-10,0-8.4,0-20.1,0-32.9,0-12.8,0-24.5,0-32.9,0-4.2,0-7.6,0-10,0-1.2,0-2.1,0-2.7,0-.3,0-.5,0-.7,0-.2,0-.2,0-.2,0s0,0,.2,0c.2,0,.4,0,.7,0,.6,0,1.5,0,2.7,0,2.4,0,5.8,0,10,0,8.4,0,20.1,0,32.9,0,12.8,0,24.5,0,32.9,0,4.2,0,7.6,0,10,0,1.2,0,2.1,0,2.7,0,.3,0,.5,0,.7,0,.2,0,.2,0,.2,0Z"/><path class="cls-14" d="m115.8,236.8s-.2,0-.6,0c-.4,0-.9,0-1.6,0-1.4,0-3.4,0-5.8,0-4.9,0-11.7,0-19.2,0-7.5,0-14.3,0-19.2,0-2.4,0-4.4,0-5.8,0-.7,0-1.2,0-1.6,0-.4,0-.6,0-.6,0s.2,0,.6,0c.4,0,.9,0,1.6,0,1.4,0,3.4,0,5.8,0,4.9,0,11.7,0,19.2,0,7.5,0,14.3,0,19.2,0,2.4,0,4.4,0,5.8,0,.7,0,1.2,0,1.6,0,.4,0,.6,0,.6,0Z"/><path class="cls-14" d="m107.7,250.3c0,0-8.6.2-19.1.2s-19.1,0-19.1-.2,8.6-.2,19.1-.2,19.1,0,19.1.2Z"/><path class="cls-14" d="m187,265s.1-.2.3-.6c.2-.4.4-1.1.3-2,0-.9-.2-1.9-.5-3.2-.3-1.2-.6-2.7-.3-4.3.4-1.6,1.5-3.2,3.1-4.1,1.7-.9,4-.9,5.8.2.9.5,1.8,1.3,2.3,2.3.2.5.4,1.1.3,1.7,0,.6-.7,1.1-1.3,1.2-.6,0-1.2,0-1.8,0-.6,0-1.2,0-1.8,0-1.2,0-2.4,0-3.6-.2-2.4-.2-4.8-.7-6.9-1.5-1.1-.4-2.2-.6-3.1-.2-.9.4-1.6,1.3-2.4,2.1-.4.4-.9.7-1.4.8-.5.1-1.1,0-1.6-.3-.9-.5-1.5-1.4-2.1-2-.3-.3-.7-.6-1.1-.7-.4-.1-.8-.1-1.2,0-.8.3-1.3,1-1.8,1.6-1.2,1.2-2.8,1.5-4,1.3-1.3-.2-2.2-1-2.7-1.7-.5-.7-.7-1.4-.8-1.9,0-.5,0-.7,0-.7,0,0,0,.2.1.7.1.4.3,1.1.8,1.8.5.7,1.4,1.4,2.6,1.6,1.2.2,2.7-.1,3.8-1.2.6-.5,1.1-1.3,1.9-1.6.4-.2.9-.2,1.4,0,.5.2.8.4,1.2.8.7.6,1.3,1.4,2.1,1.9.4.2.9.3,1.3.2.5,0,.9-.4,1.3-.7.8-.7,1.4-1.6,2.5-2.1.5-.2,1.1-.3,1.7-.2.6,0,1.1.2,1.7.4,2.1.8,4.4,1.3,6.8,1.5,1.2.1,2.4.2,3.6.2.6,0,1.2,0,1.7,0,.6,0,1.2,0,1.7,0,.5,0,.9-.4,1-.9,0-.5,0-1-.2-1.5-.5-.9-1.3-1.7-2.1-2.2-1.8-1-3.9-1.1-5.5-.2-1.6.8-2.7,2.4-3,3.9-.3,1.5,0,3,.2,4.2.3,1.2.5,2.3.5,3.2,0,.9-.2,1.6-.4,2-.2.4-.4.6-.4.6Z"/><path class="cls-14" d="m206.8,258.1s-.2,0-.5,0c-.3,0-.8,0-1.3,0-1.2,0-2.9,0-4.9,0-4.2,0-9.9.1-16.3.3-6.4.2-12.1.4-16.3.7-2.1.1-3.7.2-4.9.2-.6,0-1,0-1.3,0-.3,0-.5,0-.5,0,0,0,.2,0,.5,0,.3,0,.8,0,1.3-.1,1.2-.1,2.8-.2,4.9-.4,4.2-.3,9.9-.6,16.3-.8,6.4-.2,12.1-.2,16.3-.2,2.1,0,3.8,0,4.9,0,.6,0,1,0,1.3,0,.3,0,.5,0,.5,0Z"/><path class="cls-13" d="m126.9,252.9l-4.1,1-.3,2.1-2.8.7,1.8-10.7,2.7-.7,6.7,8.5-2.8.7-1.2-1.7Zm-1.3-1.8l-2-2.8-.5,3.4,2.5-.6Z"/><path class="cls-13" d="m138.9,245.4c.6,2.2-.7,4-3.4,4.6l-1.7.4.6,2.5-2.7.7-2.4-9.6,4.4-1.1c2.6-.7,4.6.3,5.2,2.5Zm-2.7.7c-.2-.9-.9-1.3-2-1l-1.5.4.7,2.8,1.5-.4c1.1-.3,1.6-.9,1.3-1.8Z"/><path class="cls-13" d="m148.9,242.9c.6,2.2-.7,4-3.4,4.6l-1.7.4.6,2.5-2.7.7-2.4-9.6,4.4-1.1c2.6-.7,4.6.3,5.2,2.5Zm-2.7.7c-.2-.9-.9-1.3-2-1l-1.5.4.7,2.8,1.5-.4c1.1-.3,1.6-.9,1.3-1.8Z"/><path class="cls-13" d="m155.3,245l-1.5.4.6,2.6-2.7.7-2.4-9.6,4.4-1.1c2.6-.7,4.6.3,5.2,2.5.4,1.4,0,2.6-1.1,3.5l2.8,2.5-2.9.7-2.4-2.1Zm-1.2-4.9l-1.5.4.7,2.8,1.5-.4c1.1-.3,1.6-.9,1.3-1.8-.2-.9-.9-1.3-2-1Z"/><path class="cls-13" d="m160.2,241.3c-.7-2.9,1-5.6,4.1-6.3,3.1-.8,5.9.8,6.6,3.6.7,2.9-1,5.6-4.1,6.3-3.1.8-5.9-.8-6.6-3.6Zm7.9-2c-.4-1.7-1.8-2.5-3.3-2.1-1.5.4-2.3,1.7-1.9,3.4.4,1.7,1.8,2.5,3.3,2.1,1.5-.4,2.3-1.7,1.9-3.4Z"/><path class="cls-13" d="m180.5,231.1l-1.7,10.7-2.7.7-6.5-8.6,2.9-.7,4.2,5.6,1.1-6.9,2.7-.7Z"/><path class="cls-13" d="m190.6,236.5l.5,2.1-7.7,2-2.4-9.6,7.5-1.9.5,2.1-4.8,1.2.4,1.6,4.3-1.1.5,2-4.3,1.1.4,1.8,5-1.3Z"/><path class="cls-13" d="m190.3,228.6l4.5-1.2c3.2-.8,5.8.5,6.6,3.4.7,3-1,5.4-4.1,6.2l-4.5,1.2-2.4-9.6Zm6.3,6.3c1.6-.4,2.5-1.7,2.1-3.3-.4-1.7-1.8-2.4-3.4-1.9l-1.7.4,1.3,5.3,1.7-.4Z"/><path class="cls-13" d="m118.6,264.4c-1,0-1.9-.3-2.8-.8-1.3-.7-2.2-1.9-2.5-3.4l-3.2-12.4c-.4-1.4-.2-2.9.6-4.2.7-1.3,1.9-2.2,3.4-2.5l84-21.9c1.4-.4,2.9-.2,4.2.6,1.3.7,2.2,1.9,2.5,3.4l3.2,12.4c.4,1.4.2,2.9-.6,4.2-.7,1.3-1.9,2.2-3.4,2.5l-84,21.9c-.5.1-.9.2-1.4.2Zm80.8-43.3c-.3,0-.6,0-.9.1l-84,21.9c-.9.2-1.7.8-2.2,1.6-.5.8-.6,1.8-.4,2.7l3.2,12.4c.2.9.8,1.7,1.6,2.2.8.5,1.8.6,2.7.4l84-21.9c.9-.2,1.7-.8,2.2-1.6.5-.8.6-1.8.4-2.7l-3.2-12.4c-.2-.9-.8-1.7-1.6-2.2-.6-.3-1.2-.5-1.8-.5Z"/><path class="cls-14" d="m102.9,20.2h72.4c3.5,0,6.3,2.8,6.3,6.3v18.3h-85v-18.3c0-3.5,2.8-6.3,6.3-6.3Z"/><polygon class="cls-14" points="149.9 11 128.3 11 130.8 29.5 147.1 29.5 149.9 11"/><path class="cls-3" d="m176.2,20.2c0,0-16.6.2-37.1.2s-37.1,0-37.1-.2,16.6-.2,37.1-.2,37.1,0,37.1.2Z"/><path class="cls-3" d="m98.5,40.9c0,0-.2-3.5-.2-7.8s0-7.8.2-7.8.2,3.5.2,7.8,0,7.8-.2,7.8Z"/><path class="cls-3" d="m178.9,39.1c0,0-.2-3.2-.2-7.1s0-7.1.2-7.1.2,3.2.2,7.1,0,7.1-.2,7.1Z"/><path class="cls-3" d="m174.8,42.4c0,0-17,.2-38,.2s-38,0-38-.2,17-.2,38-.2,38,0,38,.2Z"/><g class="cls-8"><polygon points="181.6 27.3 185.2 37.7 185.2 42.8 181.2 42.8 181.6 27.3"/></g><path class="cls-12" d="m54,261.5l-4.2,14.8s13.4,9.3,12.9,12.1l-28.6-7.2,5.6-23.3,14.3,3.7Z"/><path class="cls-4" d="m41.3,272.8c-.6,0-1.1.5-1.1,1.1,0,.6.5,1.2,1.1,1.2.6,0,1.3-.6,1.2-1.2,0-.6-.7-1.2-1.3-1.1"/><g class="cls-7"><path class="cls-1" d="m34.1,281.2l.7-2.3,27.1,7.8s1.1.9.8,1.8l-28.6-7.2Z"/></g><path class="cls-14" d="m50.3,276.3c0,.1-.8,0-1.6.3-.8.3-1.3.8-1.4.7-.1,0,.3-.9,1.3-1.2,1-.3,1.8,0,1.7.2Z"/><path class="cls-14" d="m53,278.3c0,.1-.7.2-1.3.7-.6.5-.9,1.1-1.1,1-.1,0,0-.9.8-1.4.8-.6,1.6-.4,1.6-.3Z"/><path class="cls-14" d="m53.8,282.4c-.1,0-.2-.8.4-1.4.5-.7,1.3-.8,1.3-.7,0,.1-.5.4-.9,1-.5.6-.6,1.1-.8,1.1Z"/><path class="cls-14" d="m50.9,272.8c0,.1-.7-.2-1.5-.4-.8-.2-1.5,0-1.5-.2,0-.1.7-.5,1.6-.3.9.2,1.5.8,1.4.9Z"/><path class="cls-12" d="m44,265l-.7,15.4s15.2,5.8,15.3,8.7l-29.4-.2v-24c0,0,14.8.2,14.8.2Z"/><path class="cls-4" d="m34.2,279c-.6.2-1,.8-.8,1.4.1.6.8,1,1.3.9.6-.1,1.1-.9.9-1.5-.2-.6-1-1-1.5-.7"/><g class="cls-7"><path class="cls-1" d="m29.2,288.9v-2.4c0,0,28.3,1.1,28.3,1.1,0,0,1.3.6,1.2,1.5l-29.4-.2Z"/></g><path class="cls-14" d="m43.8,280.2c0,.1-.7.2-1.4.7-.7.4-1.1,1.1-1.2,1-.1,0,0-.9,1-1.4.9-.6,1.7-.4,1.7-.2Z"/><path class="cls-14" d="m46.9,281.6c0,.1-.6.4-1.1,1-.5.6-.6,1.3-.8,1.3-.1,0-.2-.8.4-1.6.6-.8,1.5-.8,1.5-.7Z"/><path class="cls-14" d="m48.6,285.3c-.1,0-.3-.7,0-1.5.4-.8,1.1-1.1,1.1-1,0,.1-.4.5-.7,1.2-.3.7-.4,1.3-.5,1.3Z"/><path class="cls-14" d="m43.6,276.7c0,.1-.7,0-1.5,0-.8,0-1.4.3-1.5.2,0-.1.5-.6,1.5-.7,1,0,1.6.4,1.6.5Z"/><path class="cls-9" d="m25.8,152.6v12.1l3.2,47.3s-2,23-3.2,35.9c-1.1,11.3.7,30.9.7,30.9h18.7l6.7-65.4,4.2-40.8,7.2-18.6-37.5-1.6Z"/><path class="cls-9" d="m71.8,152.6l1.8,49.3c-.1,9.3-2.7,26.5-6,35.2l-15.1,33.1-.9,3-11.2-2.7,8.3-117,23-.8Z"/><path class="cls-3" d="m58.8,165.7s0,0,0,.3c0,.2,0,.5,0,.9,0,.8,0,1.9,0,3.3,0,2.9,0,7.1,0,12.3,0,5.2-.2,11.3-.6,18.2-.4,6.8-.9,14.4-2.5,22.1-1.5,7.8-3.1,15.1-4.5,21.8-1.4,6.7-2.6,12.7-3.5,17.8-.9,5.1-1.6,9.2-2,12.1-.2,1.4-.3,2.5-.4,3.3,0,.4,0,.6-.1.9,0,.2,0,.3,0,.3,0,0,0-.1,0-.3,0-.2,0-.5,0-.9,0-.8.2-1.9.4-3.3.3-2.9,1-7,1.8-12.1.9-5.1,2.1-11.1,3.5-17.8,1.4-6.7,2.9-14.1,4.4-21.8,1.6-7.7,2.1-15.2,2.5-22.1.4-6.8.6-13,.7-18.2.1-5.2.2-9.4.2-12.2,0-1.4,0-2.6,0-3.3,0-.4,0-.7,0-.9,0-.2,0-.3,0-.3Z"/><path class="cls-9" d="m82.8,137s.4,1.4.3,2.8c-.1,1.5-.2,5-4.1,6.3-3.9,1.2-7.5-1.7-8.7-3-1.2-1.3-1-5.6-1-5.6l6.4-2.8,7.2,2.4Z"/><path class="cls-9" d="m38.8,82.3l-3.2,5.2-13.1,5.6,3.3,53.6,2.3,9.7,43.5-1.4,1.9-3.2-3.2-41.2c-1-9.3-3.1-14.2-7.2-16.5l-2.7-1.9-1-3.4-3.8-3.6-12.3-3.2-4.4.4Z"/><g class="cls-8"><path d="m24.3,142.6c2.7,4.3,8.1,6.7,13.1,5.8,4.4-.7,8.1-3.6,12.2-5.1,7.3-2.5,15.6-.5,22.8-3.3.1-1.2,0-2.8.1-3.6-3.6-.2-7.4-.4-10.6-2.1l-2.9-1.1-34.8,9.3Z"/></g><path class="cls-9" d="m22.5,93s-6.2,5.3-4.4,19.1c1.7,12.8,4.6,30.7,8.6,32.8s12.5,1,18.7-2.5c6.2-3.5,24.3-13.1,24.3-13.1l-7.5-13.3-24.1,9.3s-3.1-21.3-5-25"/><path class="cls-14" d="m33.1,100.5s0,.1.2.4c0,.1.1.3.2.5,0,.2.1.5.2.7.4,1.1.8,2.8,1.2,4.9.9,4.3,2.1,10.6,3.2,18.4h-.2c6.8-2.8,15-5.9,24.1-9.5h.1c0,0,0,0,0,0,2.4,4.2,4.9,8.7,7.5,13.3v.2c0,0,0,0,0,0-5,2.7-10.1,5.5-15.4,8.3-2.6,1.4-5.1,2.7-7.6,4.1-1.2.7-2.5,1.4-3.8,1.9-1.3.5-2.6,1-3.9,1.4-2.7.7-5.4,1.1-8,.9-1.3,0-2.6-.3-3.9-.8l-.5-.2c-.1,0-.3-.2-.4-.3-.3-.2-.5-.5-.7-.7-.4-.5-.7-1.1-1-1.6-1.1-2.3-1.8-4.7-2.4-7-.6-2.3-1.1-4.6-1.5-6.8-.9-4.4-1.5-8.5-2-12.3-.5-3.8-1-7.2-.9-10.2.1-3,.6-5.6,1.4-7.6.7-2,1.6-3.4,2.3-4.3.3-.5.6-.8.8-1,.2-.2.3-.3.3-.3,0,0-.1.1-.3.3-.2.2-.5.5-.8,1-.6.9-1.5,2.3-2.2,4.3-.7,2-1.2,4.6-1.3,7.6-.1,3,.4,6.4.9,10.2.5,3.8,1.2,7.9,2.1,12.3.4,2.2.9,4.5,1.5,6.8.6,2.3,1.3,4.7,2.4,6.9.3.6.6,1.1,1,1.6.2.2.4.5.6.7.1,0,.2.2.4.2l.4.2c1.2.5,2.5.7,3.8.8,2.6.2,5.3-.2,7.9-.9,1.3-.4,2.6-.8,3.9-1.3,1.3-.5,2.5-1.2,3.7-1.9,2.5-1.3,5-2.7,7.6-4.1,5.3-2.9,10.5-5.6,15.5-8.3v.2c-2.7-4.6-5.2-9.1-7.5-13.3h.2c-9.1,3.6-17.3,6.8-24.1,9.4h-.2c0,0,0-.1,0-.1-1.2-7.8-2.2-14.1-3.1-18.4-.4-2.2-.8-3.8-1.2-4.9,0-.3-.2-.5-.2-.7,0-.2-.1-.4-.2-.5-.1-.3-.2-.4-.2-.4Z"/><polygon class="cls-1" points="35.2 108.4 50.8 107.3 54.3 113.8 36.7 117 35.2 108.4"/><path class="cls-14" d="m35.2,108.4s0,.2.1.6c0,.4.2,1,.3,1.7.3,1.5.7,3.6,1.2,6.2h-.2c4.2-.9,9.7-1.9,15.8-3,.6-.1,1.2-.2,1.7-.3v.3c-1.3-2.3-2.5-4.5-3.6-6.5h.2c-4.5.4-8.4.6-11.2.7-1.4,0-2.5.1-3.3.2-.4,0-.6,0-.9,0-.2,0-.3,0-.3,0s0,0,.3,0c.2,0,.5,0,.8,0,.8,0,1.9-.1,3.2-.3,2.8-.2,6.7-.5,11.3-.8h.1s0,0,0,0c1.1,2,2.3,4.2,3.5,6.5v.2c.1,0-.1,0-.1,0-.6.1-1.2.2-1.7.3-6,1.1-11.6,2-15.8,2.8h-.1s0-.1,0-.1c-.4-2.6-.8-4.8-1.1-6.4-.1-.7-.2-1.3-.3-1.7,0-.4,0-.6,0-.6Z"/><path class="cls-14" d="m38.1,125.5c0,0-1.3,1.7-2.5,4.1-1.2,2.4-1.7,4.5-1.8,4.4,0,0,0-.5.3-1.4.2-.8.6-2,1.2-3.2.6-1.2,1.3-2.2,1.8-2.9.5-.7.9-1.1,1-1Z"/><path class="cls-14" d="m53.8,95.7s-.3-.2-.9-.6c-.6-.5-1.4-1.1-2.3-1.8h.2c-.7,1.2-1.8,2.5-3.1,3.9h-.1c0,.1-.1,0-.1,0-.8-.6-1.6-1.3-2.4-2-2.6-2.1-5-3.9-6.7-5.2-.8-.6-1.5-1.1-2.1-1.5-.5-.4-.8-.6-.7-.6,0,0,.3.1.8.5.5.3,1.2.8,2.1,1.4,1.8,1.2,4.2,3,6.8,5.1.8.7,1.6,1.4,2.4,2h-.2c1.3-1.3,2.4-2.6,3.1-3.8h0c0-.1.1,0,.1,0,.9.8,1.6,1.4,2.2,1.9.5.5.8.7.8.7Z"/><path class="cls-14" d="m60.2,92.4s0,.3.1.9c0,.6,0,1.4,0,2.3v.4s-.3-.3-.3-.3c-.5-.7-1.1-1.6-1.9-2.4-.3-.3-.6-.6-.8-.9-.1-.1-.3-.3-.4-.4-.1,0-.1,0-.2,0-.4.6-.8,1.1-1.2,1.6-.7.9-1.1,1.5-1.1,1.4,0,0,.3-.6.9-1.6.3-.5.7-1.1,1.1-1.7,0,0,.1-.2.3-.2.2,0,.3,0,.4.1.2.2.3.3.4.4.3.3.6.6.9.9.7.9,1.4,1.7,1.8,2.5h-.3c.3-1.8.2-3.1.3-3.1Z"/><path class="cls-14" d="m32.4,98.4s-.4-.4-1-1.2c-.6-.7-1.4-1.7-2.6-2.5-1.2-.8-2.4-1.1-3.3-1.3-.9-.1-1.5-.2-1.5-.2,0,0,.6-.1,1.5,0,.9,0,2.2.4,3.5,1.2,1.2.8,2,1.9,2.6,2.6.5.8.8,1.3.8,1.3Z"/><path class="cls-14" d="m66.4,108c0,0-.6-1.5-1.2-3.3-.6-1.9-1-3.4-.9-3.4,0,0,.6,1.5,1.2,3.3.6,1.9,1,3.4.9,3.4Z"/><g class="cls-8"><polygon points="34.1 103.7 38.5 116.7 53 114.1 39 119.5 37.9 124 34.1 103.7"/></g><g class="cls-8"><path d="m35.9,88l12.9,11.7,2-5.5,2.1.7-2.2-1.9s-2.5,3.8-3.1,3.8l-11.7-8.9Z"/></g><path class="cls-14" d="m60.6,116.1s-.1-.3-.3-.8c-.2-.6-.4-1.3-.6-2.2-.5-1.8-1.3-4.4-2.2-7.1-.9-2.8-1.8-5.2-2.5-7-.3-.8-.6-1.5-.8-2.1-.2-.5-.3-.8-.3-.8,0,0,.2.3.4.7.2.5.5,1.2.9,2.1.7,1.8,1.7,4.2,2.6,7,.9,2.8,1.6,5.3,2.1,7.2.2.9.4,1.7.5,2.2.1.5.2.8.1.8Z"/><path class="cls-14" d="m60.4,101.6c2.4,2.4,8.6,8.8,8.6,8.8l1.7-1-8.7-9.3c-.4-.4-1-.5-1.4-.2h0c-.6.4-.7,1.2-.2,1.7Z"/><path class="cls-6" d="m62.2,116.1l2.1-5.9c.5-1.3,1.6-2.2,3-2.3.1,0,.2,0,.3,0,1.2.1,7.6.6,7.6.6l2.5,2.8c.4.5.4,1.2,0,1.7h0l.7,5-1.4.9v3.5c.1,0-1.1.8-1.7.6l-.6-.3-.8-.8-2.4,3.3-3.3,1.9-6.2-10.9Z"/><path class="cls-10" d="m77.7,113.3c0,0-.3-.4-.9-1-.3-.3-.7-.5-1.2-.7-.5-.2-1.1-.2-1.7-.2-2.5-.2-4.6-.5-4.5-.6,0,0,2.1,0,4.6.2.6,0,1.2,0,1.8.3.5.2.9.5,1.3.8.6.6.8,1.1.7,1.2Z"/><path class="cls-10" d="m77.5,117.9c0,0,0-.5-.5-1.3-.4-.7-1.3-1.6-2.5-2.1-1.2-.5-2.4-.5-3.3-.5-.9,0-1.4,0-1.4,0,0,0,.5-.2,1.4-.2.9,0,2.1,0,3.4.5,1.3.5,2.2,1.5,2.6,2.3.4.8.3,1.4.3,1.4Z"/><path class="cls-10" d="m76.9,122.1c0,0-.3-.5-.3-1.4,0-.4,0-.9-.3-1.4-.2-.5-.7-.8-1.3-1-1.2-.3-2.5-.4-3.3-.5-.9-.1-1.4-.3-1.4-.3,0,0,.5,0,1.4,0,.9,0,2.1,0,3.4.4.3,0,.7.2.9.4.3.2.5.5.6.8.2.6.2,1.1.3,1.5,0,.9.1,1.4,0,1.4Z"/><polygon class="cls-3" points="80.4 111.1 52.9 139.5 54 140.5 73.7 138.3 100.1 113.1 100.1 111.9 80.4 111.1"/><g class="cls-8"><path d="m82.2,128.9c-1-1-2.5-1.4-4-1.3-1.4.1-2.8.8-3.9,1.7-.9.7-1.7,1.7-1.9,2.8-.5,2,.8,4,2.6,5l.2-.3c2.3-1.8,4.5-3.6,6.8-5.4.3-.3.7-.6.8-1,.1-.5-.2-1-.6-1.4Z"/></g><path class="cls-6" d="m79.3,126.3s2.7,0,3.5.5c.9.4,3.3,3,3.3,3,0,0,0,1.7-.7,1.8,0,0,0,.2.1,1.2,0,1,.2,1.5-1.1,2.4,0,0,.1,1.6-.3,2-.5.4-1,.8-1,.8,0,0-1.5,1.9-2.4,1.7-.9-.1-2.2,1-2.2,1,0,0-4.9-2-4.4-2.6.5-.6,1.7-1.9,1.7-1.9,0,0-3.4-2.4-3.3-3.2,0-.8.3-.8.3-.8,0,0-.1-1.5,1-1.6,0,0,.9-1.8,1.8-1.9.9,0,7,2.1,7,2.1l-2.3-1.9s-2.3-.3-2.2-1.1c0-.8,1.2-1.4,1.2-1.4Z"/><path class="cls-10" d="m78.9,135.4c0,0-1.4-.7-3.1-1.5-1.7-.8-3.1-1.4-3.1-1.5,0,0,1.5.3,3.3,1.2,1.7.8,3,1.7,2.9,1.8Z"/><path class="cls-10" d="m82,133.3c0,0-1.8-.5-4-1.3-2.2-.8-3.9-1.5-3.8-1.6,0,0,1.8.5,4,1.3,2.2.8,3.9,1.5,3.8,1.6Z"/><path class="cls-14" d="m100,113.1s-.1,0-.4,0c-.3,0-.6,0-1,0-1,0-2.3,0-3.9,0-3.4,0-8.1-.2-13.7-.3h.1c-2.1,2.2-4.5,4.6-6.9,7.1-5.6,5.7-10.6,10.9-14.3,14.7-1.8,1.8-3.3,3.4-4.4,4.4-.5.5-.9.9-1.2,1.2-.3.3-.4.4-.4.4,0,0,.1-.2.4-.4.3-.3.7-.7,1.1-1.2,1-1.1,2.5-2.6,4.3-4.5,3.7-3.8,8.7-9,14.2-14.8,2.4-2.5,4.8-4.9,6.9-7.1h0c0,0,0,0,0,0,5.5.2,10.3.3,13.7.4,1.7,0,3,.1,3.9.1.4,0,.8,0,1,0,.2,0,.4,0,.4,0Z"/><path class="cls-11" d="m73.6,151.6l2.9,4.1s2.6,24.5,1.5,25.7c-1.2,1.1-5.1,1.1-5.1,1.1l-1.1-29.4,1.8-1.5Z"/><rect class="cls-11" x="22.6" y="151.6" width="51" height="8.5"/><path class="cls-11" d="m24.2,155.7h23.6v21.8c0,3.8-3.1,6.9-6.9,6.9h-9.8c-3.8,0-6.9-3.1-6.9-6.9v-21.8h0Z"/><path class="cls-14" d="m47.8,163.5s0-.5,0-1.5c0-.9,0-2.3-.5-4-.1-.4-.3-.8-.6-1.1-.3-.3-.7-.6-1.1-.9-.8-.5-1.9-.8-3-.9-2.2-.2-4.7,0-7.3,0-2.6,0-5.1-.2-7.3.3-1.1.2-2.1.6-2.7,1.4-.6.7-.8,1.7-.9,2.5-.2,1.7-.1,3.1-.2,4,0,.4,0,.8,0,1.1,0,.3,0,.4,0,.4,0,0,0-.1,0-.4,0-.3,0-.7,0-1.1,0-1,0-2.3,0-4,0-.8.2-1.8.9-2.7.7-.8,1.8-1.3,2.9-1.5,1.1-.2,2.3-.3,3.6-.3,1.2,0,2.5,0,3.8,0,2.6,0,5.1,0,7.3,0,1.1.1,2.2.5,3.1,1,.4.3.8.6,1.2.9.4.4.5.8.7,1.2.4,1.7.4,3.1.4,4,0,.4,0,.8,0,1.1,0,.3,0,.4,0,.4Z"/><path class="cls-14" d="m47.6,166c0,0-5.2.2-11.6.2s-11.6,0-11.6-.2,5.2-.2,11.6-.2,11.6,0,11.6.2Z"/><path class="cls-14" d="m30.9,184.7c0,0-.2-4.2-.2-9.4s0-9.4.2-9.4.2,4.2.2,9.4,0,9.4-.2,9.4Z"/><path class="cls-14" d="m41.6,184.6c0,0-.2-4.2-.2-9.3s0-9.3.2-9.3.2,4.2.2,9.3,0,9.3-.2,9.3Z"/><path class="cls-14" d="m64.4,159.8c0,0-.4-1.8-.4-4.1,0-2.3.2-4.2.3-4.1.1,0,0,1.9,0,4.1,0,2.3.1,4.1,0,4.1Z"/><path class="cls-14" d="m73.7,151.7s.2.5.3,1.4c.1.9.3,2.1.3,3.4,0,.7,0,1.3,0,1.9-.1.6-.4,1.1-.8,1.4-.4.3-.7.4-1,.4-.3,0-.4,0-.4,0,0,0,.6,0,1.2-.5.3-.3.5-.7.6-1.3.1-.5,0-1.2,0-1.8-.1-2.6-.4-4.8-.3-4.8Z"/><path class="cls-14" d="m40,71.5c-.9-2.9-1.9-5.7-2.3-8.7-.4-3-.4-6.1.7-8.9.2-.4,1.5-3.3,2-3.3.3,0-.5,2.7-.3,3,1.6,2.7,2,5.9,1.8,9-.2,3.1-.9,5.9-1.8,8.9"/><path class="cls-6" d="m56.9,88.1c0-2.1,0-3.8,0-3.8,0,0,7.3-.8,7.7-8,.2-3.5,0-10.7-.1-17.3-.2-7-5.8-12.7-12.8-13.1h-.7c-7.6,0-11.7,6.5-11.4,14v22.4c0,0,15.1,10.7,15.1,10.7l2.2-5.1Z"/><path class="cls-10" d="m57,84.3s-4.6,0-9.3-3.3c0,0,2,5.5,9.2,5.2v-1.9Z"/><path class="cls-14" d="m62.2,65.2c0,.5-.5,1-1,1-.6,0-1-.4-1-1,0-.5.5-1,1-1,.6,0,1,.4,1,1Z"/><path class="cls-14" d="m62.9,62c-.1.1-.9-.5-2-.5-1.1,0-2,.5-2.1.3,0,0,0-.3.5-.5.4-.2,1-.5,1.7-.4.7,0,1.3.3,1.6.6.3.3.4.5.4.6Z"/><path class="cls-14" d="m52.2,65.3c0,.5-.5,1-1,1-.6,0-1-.4-1-1,0-.5.5-1,1-1,.6,0,1,.4,1,1Z"/><path class="cls-14" d="m52,61.9c-.1.1-.9-.5-2-.5-1.1,0-2,.5-2.1.3,0,0,0-.3.5-.5.4-.2,1-.5,1.7-.4.7,0,1.3.3,1.6.6.3.3.4.5.4.6Z"/><path class="cls-14" d="m55.6,70.6c0,0,.7-.1,1.8-.2.3,0,.6,0,.6-.2,0-.2,0-.5-.1-.9-.2-.7-.5-1.4-.7-2.2-1-3.1-1.7-5.7-1.6-5.7.1,0,1.1,2.5,2.1,5.6.2.8.5,1.5.7,2.2,0,.3.3.7,0,1.1,0,.2-.3.4-.5.4-.2,0-.3,0-.5,0-1.1,0-1.8,0-1.8,0Z"/><path class="cls-14" d="m52.2,71.2c.2,0,.1,1.2,1.1,2.1,1,.9,2.3.8,2.3,1,0,0-.3.2-.8.2-.5,0-1.3-.2-1.9-.8-.6-.6-.8-1.3-.9-1.8,0-.5.1-.8.2-.8Z"/><path class="cls-14" d="m52.2,57.3c-.1.3-1.2,0-2.5.2-1.3,0-2.4.4-2.5.1,0-.1.1-.4.6-.7.4-.3,1.1-.5,1.9-.6.8,0,1.5.1,2,.3.5.2.7.5.6.6Z"/><path class="cls-14" d="m62.6,58.2c-.2.2-1,0-1.9-.1-.9,0-1.7,0-1.9-.2,0-.1,0-.4.4-.6.3-.2.9-.4,1.6-.3.6,0,1.2.3,1.5.6.3.3.4.5.3.7Z"/><path class="cls-6" d="m40,65.4c-.1,0-4.9-1.7-5,3.2,0,5,4.9,4,4.9,3.9,0-.1,0-7.1,0-7.1Z"/><path class="cls-10" d="m38.4,70.6s0,0-.2.1c-.1,0-.4.1-.6,0-.5-.2-.9-1-1-1.9,0-.5,0-.9.3-1.2.2-.4.4-.6.7-.7.3,0,.4.1.5.2,0,.1,0,.2,0,.2,0,0,.1,0,0-.3,0,0,0-.2-.2-.3-.1,0-.3-.2-.5-.1-.4,0-.7.4-.9.8-.2.4-.3.9-.3,1.4,0,1,.5,1.9,1.2,2.2.3,0,.6,0,.8-.1.2-.1.2-.2.2-.2Z"/><path class="cls-14" d="m61.5,50.8c.8-.4-1.6-3.1-3.5-4-3-1.4-7.5-2.3-10.3-1.5-3.3.9-6.1,2.5-7.8,5.5-1.7,3-2.3,6.5-2.3,9.9,0,1,.1,2.1.7,3,.7,1.1,2,1.8,1.9,3.3,0,.6.1,1.1.5,1.5.9,1,2,0,2.5-.8,1.1-1.9,1.2-4.2,1.4-6.5,0-1.6.2-3.2-.3-4.7-.2-.8-.6-1.6-.8-2.5-.2-.8-.2-1.8.4-2.5,0-.1.2-.2.4-.4,1.4-1.2,3.4-1.6,5.1-.9,2.8,1,7.5,2.5,8.8,1.6,1.8-1.3,2.2-2.2,2.2-2.2l1,1Z"/><path class="cls-11" d="m48.2,42.5c-.3,0-8.4,1.5-10.7,7.3-2.3,5.9-1.8,7.7-1.8,7.7,0,0-.5.3-.9.7-.3.4,0,2.3,1.1,2.1,8-3.1,17.2-3,27.5-2.3l7.9.3c2.2.4,3-.2,2.1-.8-.7-.5-6.8-3.2-6.8-3.2l-1.2-1-3.1-4.7s.4-.6-.3-1.2c-.8-.6-7.3-5.6-13.8-5Z"/><path class="cls-14" d="m65.4,53.3s-.1,0-.3,0c-.2,0-.5,0-.9,0-.8,0-1.9-.1-3.2-.1-2.7,0-6.5.1-10.6.8-4.1.7-7.8,1.6-10.4,2.4-1.3.4-2.4.7-3.1.9-.3,0-.6.2-.8.2-.2,0-.3,0-.3,0,0,0,0,0,.3-.1.2,0,.5-.2.8-.3.7-.2,1.8-.6,3.1-.9,2.6-.8,6.3-1.8,10.4-2.4,4.1-.7,7.9-.9,10.7-.8,2.7,0,4.4.3,4.4.3Z"/><g class="cls-8"><path d="m40.7,45.7s8.7-1,12.4,1c-.1,0-.3-.2-.4-.2,1.2.6,2.4,1.2,3.6,1.8.6.3,1.3.6,1.9.3,0,0-1.9-1.8-5.4-3.2-3.5-1.4-9.2-2.2-12.1.4Z"/></g><path class="cls-14" d="m40.6,45.7s.3-.2.8-.5c.5-.3,1.3-.6,2.4-.9,1-.3,2.3-.4,3.7-.4,1.4,0,3,.3,4.4,1.1.7.4,1.4.8,2,1.2.6.4,1.3.8,1.8,1.2.6.4,1.1.9,1.6,1.1.5.3,1.1.4,1.6.4,2.1.1,3.4-.3,3.3-.4,0,0,0,0-.2.2-.1,0-.4.1-.7.2-.6.1-1.4.2-2.5.1-.5,0-1.1,0-1.7-.4-.6-.3-1.1-.7-1.6-1.1-.6-.4-1.2-.8-1.8-1.2-.6-.4-1.3-.8-2-1.2-1.4-.7-3-1-4.4-1.1-1.4,0-2.7,0-3.7.3-1,.2-1.8.6-2.4.8-.3.1-.5.2-.6.3-.1,0-.2.1-.2.1Z"/><g class="cls-8"><path d="m36.6,52.3c1.5,0,2.7-.3,4.3-.6,1.6-.3,3.3-.5,4.9-.9,1.2-.3,2.7-.5,3.5-1.4,0,.6-.1,1.2-.6,1.6-.5.4-2,.9-2.7,1-3.6.8-6.1,1.4-9.9,1.5,0-.4.4-1.4.4-1.4"/></g><path class="cls-11" d="m37.8,49.2c-1,.4-1.6.6-1.7,1.5,0,.7,0,1.5.7,1.7.2,0,.4,0,.6,0,3.6-.6,7.2-1.1,10.8-1.7.4,0,.8-.1,1-.4.4-.4.1-1.1-.3-1.5-.5-.3-1.1-.4-1.6-.4-3.2-.2-6.4.2-9.5.8"/><path class="cls-14" d="m49,50.4s.2-.1.3-.5c.1-.3,0-.9-.4-1.4-.5-.4-1.3-.6-2.1-.6-.9,0-1.8,0-2.8,0-2,0-3.8.4-5,.7-.6.1-1.1.3-1.5.4-.1,0-.3,0-.4.1,0,0-.1,0-.1,0,0,0,0,0,.1,0,.1,0,.3,0,.4-.1.3-.1.8-.3,1.5-.4,1.3-.3,3-.6,5-.7,1,0,1.9,0,2.8,0,.9,0,1.7.2,2.2.6.5.5.5,1.1.4,1.5,0,.2-.2.3-.2.4,0,0-.1,0-.1,0Z"/><polygon class="cls-1" points="63.3 50.1 56.6 49.7 57.1 51.6 64.4 51.8 63.3 50.1"/><path class="cls-14" d="m52.9,55.6s3-.3,6.7-.7c3.7-.3,6.7-.6,6.7-.5,0,0-3,.3-6.7.7-3.7.3-6.7.6-6.7.5Z"/><polygon class="cls-11" points="71.7 112.3 67.9 113 66.1 105.5 69.9 105.2 71.7 112.3"/></g><g id="text"><path class="cls-9" d="m102.5,79.4h197.5v61h-169.1c-15.7,0-28.5-12.8-28.5-28.5v-32.6h0Z"/><path class="cls-1" d="m128.2,127.3c-2.1-1.2-3.7-2.9-4.8-5.2-1.1-2.2-1.7-4.8-1.7-7.8v-10.9c0-2.9.6-5.5,1.7-7.8,1.1-2.2,2.8-4,4.8-5.2,2.1-1.2,4.5-1.8,7.2-1.8s4.4.5,6.3,1.5c1.9,1,3.5,2.4,4.8,4.1,1.3,1.8,2.2,3.9,2.6,6.2h-5.7c-.3-1.2-.9-2.3-1.7-3.3-.8-1-1.8-1.7-2.9-2.3-1.1-.5-2.2-.8-3.4-.8s-3,.4-4.3,1.2-2.2,1.9-2.8,3.3c-.7,1.4-1,3.1-1,4.9v10.9c0,1.9.3,3.5,1,4.9.7,1.4,1.6,2.5,2.8,3.3,1.2.8,2.6,1.2,4.3,1.2s2.3-.2,3.4-.7c1.1-.5,2-1.2,2.8-2.2.8-1,1.4-2.1,1.7-3.4h5.7c-.5,2.3-1.3,4.4-2.6,6.2-1.3,1.8-2.9,3.2-4.8,4.1-1.9,1-4,1.5-6.3,1.5s-5.2-.6-7.2-1.8Z"/><path class="cls-1" d="m156.5,89h5.6v39.7h-5.6v-39.7Zm3.5,17.5h22v5.3h-22v-5.3Zm19.1-17.5h5.6v39.7h-5.6v-39.7Z"/><path class="cls-1" d="m194.5,89h5.6v39.7h-5.6v-39.7Zm2.7,0h22.8v5.3h-22.8v-5.3Zm0,17.3h19.8v5.3h-19.8v-5.3Zm0,17.1h22.8v5.3h-22.8v-5.3Z"/><path class="cls-1" d="m233.7,127.3c-2.1-1.2-3.7-2.9-4.8-5.2-1.1-2.2-1.7-4.8-1.7-7.8v-10.9c0-2.9.6-5.5,1.7-7.8,1.1-2.2,2.8-4,4.8-5.2,2.1-1.2,4.5-1.8,7.2-1.8s4.4.5,6.3,1.5c1.9,1,3.5,2.4,4.8,4.1,1.3,1.8,2.2,3.9,2.6,6.2h-5.7c-.3-1.2-.9-2.3-1.7-3.3-.8-1-1.8-1.7-2.9-2.3-1.1-.5-2.2-.8-3.4-.8s-3,.4-4.3,1.2-2.2,1.9-2.8,3.3c-.7,1.4-1,3.1-1,4.9v10.9c0,1.9.3,3.5,1,4.9.7,1.4,1.6,2.5,2.8,3.3,1.2.8,2.6,1.2,4.3,1.2s2.3-.2,3.4-.7c1.1-.5,2-1.2,2.8-2.2.8-1,1.4-2.1,1.7-3.4h5.7c-.5,2.3-1.3,4.4-2.6,6.2-1.3,1.8-2.9,3.2-4.8,4.1-1.9,1-4,1.5-6.3,1.5s-5.2-.6-7.2-1.8Z"/><path class="cls-1" d="m262,89h5.6v39.7h-5.6v-39.7Zm4.4,22.3l17.5-22.3h6.9l-25.2,30.6.8-8.4Zm6.6-3.8l4.4-4.1,15,25.3h-6.8l-12.6-21.2Z"/></g></svg>