<?xml version="1.0" encoding="UTF-8"?><svg xmlns="http://www.w3.org/2000/svg" xmlns:xlink="http://www.w3.org/1999/xlink" viewBox="0 0 300 300"><defs><style>.cls-1{fill:#f0f0f0;}.cls-2,.cls-3,.cls-4{fill:#fff;}.cls-5{fill:#fafafa;}.cls-6,.cls-3{opacity:.5;}.cls-7{fill:#37474f;}.cls-8{fill:#f5f5f5;}.cls-9{stroke-linecap:round;stroke-linejoin:round;stroke-width:1.1px;}.cls-9,.cls-10,.cls-11,.cls-12,.cls-13,.cls-14{fill:none;}.cls-9,.cls-15{stroke:#fff;}.cls-16{fill:#455a64;}.cls-10,.cls-17{opacity:.4;}.cls-18{fill:#e0e0e0;}.cls-4{opacity:.7;}.cls-19,.cls-14{opacity:.1;}.cls-20{fill:#bfe5ef;}.cls-21,.cls-15{fill:#27debf;}.cls-22{fill:#418bce;}.cls-23{opacity:0;}.cls-15{stroke-miterlimit:10;}.cls-24{fill:#fcdec8;}.cls-12{clip-path:url(#clippath);}.cls-13{opacity:.3;}.cls-25{fill:#e5c3ac;}.cls-26{fill:#004681;}.cls-27{fill:#263238;}</style><clipPath id="clippath"><path class="cls-11" d="m133.9,158.5l-11.3,6.5-7,4c-.2.1-.4.2-.7.4-2.6,1.6-4.4,4.5-4.4,7.9v32.6c0,3.2-1.5,5.8-3.7,7.5-1.6,1.2-3.6,1.9-5.6,1.9s-3.2-.4-4.7-1.3c-8.7-5-14-14.3-14-24.3v-33.8c0-5-1.3-9.8-3.8-14-2.4-4.2-5.9-7.8-10.3-10.3l51.5-29.7h0c4.3,2.5,7.9,6.1,10.3,10.3,2.4,4.2,3.8,9,3.8,14v14.7c0,4.2,0,13.5,0,13.5Z"/></clipPath></defs><g id="bg"><rect class="cls-20" x="0" width="300" height="300"/></g><g id="obj"><ellipse id="Floor" class="cls-1" cx="150" cy="201.5" rx="131.2" ry="75.7"/><polygon id="Shadow" class="cls-18" points="76.1 210 182.8 271.6 231.7 243.3 125 181.7 76.1 210"/><path id="Shadow-2" class="cls-18" d="m58.6,225.8l-23.5-13.6c-.7-.4-.7-1.1,0-1.5l82.5-47.7c.7-.4,1.8-.4,2.5,0l23.5,13.6c.7.4.7,1.1,0,1.5l-82.5,47.7c-.7.4-1.8.4-2.5,0Z"/><g id="Device"><g id="Device-2"><path class="cls-7" d="m126.9,20.5L58.9,59.7c-1.4.8-2.5,2.7-2.5,4.3v153.3c0,1.6,1.1,2.2,2.5,1.4l68-39.2c1.4-.8,2.5-2.7,2.5-4.3V21.9c0-1.6-1.1-2.2-2.5-1.4Zm-1.1,140.6c0,1.3-.9,2.2-2.1,2.9l-61.8,35.7c-1.2.7-2.1.1-2.1-1.2v-120.1c0-1.4,1-3,2.1-3.7l61.8-35.7c1.2-.7,2.1-.1,2.1,1.2v120.9Z"/><path class="cls-27" d="m58.6,218.9c-1.4.6-3.4.6-4.6-.2l-2.8-1.6c-1.4-.8-2.5-2.7-2.5-4.3V59.6c0-.6.2-1.2.4-1.8,0-.2.2-.4.3-.6,0,0,0,0,0,0l7.8,4.5h0c-.2.3-.3.6-.4.9-.2.5-.3,1-.3,1.5v153.3c0,1.5.9,2.1,2.2,1.6Z"/><path class="cls-21" d="m93.5,185.7c2.2-1.2,3.9-.2,3.9,2.3s-1.7,5.5-3.9,6.8c-2.2,1.2-3.9.2-3.9-2.3s1.7-5.5,3.9-6.8Z"/><path d="m92.9,43.4c.9-.5,1.7,0,1.7,1s-.7,2.3-1.7,2.9c-.9.5-1.7.1-1.7-1,0-1.1.7-2.3,1.7-2.9Z"/><path d="m86.5,53.5l12.8-7.4c.8-.4,1.4-.1,1.4.7,0,.8-.6,1.9-1.4,2.3l-12.8,7.4c-.8.4-1.4.1-1.4-.7,0-.8.6-1.9,1.4-2.3Z"/><path class="cls-15" d="m125.8,161c0,1.3-.9,2.2-2.1,2.9l-61.8,35.7c-1.2.7-2.1.1-2.1-1.2v-120.1c0-1.4,1-3,2.1-3.7l61.8-35.7c1.2-.7,2.1-.1,2.1,1.2v120.9Z"/><path class="cls-16" d="m129.3,21.5c-.2-1.3-1.2-1.8-2.4-1L58.9,59.7c-.7.4-1.3,1.1-1.7,1.8l-7.8-4.5c.5-.8,1.1-1.4,1.8-1.8L119.1,16c1.4-.8,3.6-.8,4.9,0l2.8,1.6c1.2.7,2.3,2.4,2.4,3.9Z"/></g><path class="cls-2" d="m78.2,94.5c.7-.4,1.4-.6,1.9-.6.6,0,1.1.1,1.5.5.4.3.8.8,1,1.5.2.7.4,1.5.4,2.4,0,.3,0,.6,0,.9v1.6c0,.3,0,.6,0,.9,0,1-.2,2-.4,2.9-.2.9-.6,1.8-1,2.6-.4.8-.9,1.6-1.5,2.2-.6.7-1.2,1.2-1.9,1.6l-4.2,2.4c-.1,0-.2,0-.3,0,0,0-.1-.2-.1-.4v-15.3c0-.2,0-.3.1-.5,0-.2.2-.3.3-.4l4.1-2.4Zm2,5.4c0-1.8-.8-2.3-2.1-1.5l-1.6.9v9l1.6-1c1.3-.7,2-2,2-3.9,0-.3,0-.7,0-.9v-1.7c0-.3,0-.6,0-.9Z"/><path class="cls-2" d="m90.2,87.5c.2-.1.4-.1.5,0,.1.1.2.2.2.4l3.4,13c0,.1,0,.2,0,.3,0,.1,0,.3,0,.4,0,.1-.1.2-.2.3l-1.9,1.1c-.2.1-.4.1-.4,0,0,0-.1-.2-.2-.3l-.4-1.7-4.1,2.4-.4,2.2c0,.1,0,.3-.2.5,0,.2-.2.3-.4.5l-1.9,1.1c0,0-.2,0-.2,0,0,0,0-.2,0-.3s0-.2,0-.4l3.4-16.9c0-.2.1-.4.2-.7.1-.2.3-.4.5-.5l2.5-1.4Zm-2.5,11.8l2.5-1.4-1.2-5-1.2,6.4Z"/><path class="cls-2" d="m102.4,80.5c.1,0,.2,0,.3,0,0,0,.1.2.1.4v2.5c0,.2,0,.3-.1.5,0,.2-.2.3-.3.4l-2.7,1.6v12.2c0,.2,0,.3-.1.5,0,.2-.2.3-.3.4l-2,1.2c-.1,0-.2,0-.3,0,0,0-.1-.2-.1-.4v-12.2l-2.7,1.6c-.1,0-.2,0-.3,0,0,0-.1-.2-.1-.4v-2.5c0-.2,0-.3.1-.5,0-.2.2-.3.3-.4l8.3-4.8Z"/><path class="cls-2" d="m108.8,76.8c.2-.1.4-.1.5,0,.1.1.2.2.2.4l3.4,13c0,.1,0,.2,0,.3,0,.1,0,.3,0,.4,0,.1-.1.2-.2.3l-1.9,1.1c-.2.1-.4.1-.4,0,0,0-.1-.2-.2-.3l-.4-1.7-4.1,2.4-.4,2.2c0,.1,0,.3-.2.5,0,.2-.2.3-.4.5l-1.9,1.1c0,0-.2,0-.2,0,0,0,0-.2,0-.3s0-.2,0-.4l3.4-16.9c0-.2.1-.4.2-.7.1-.2.3-.4.5-.5l2.5-1.4Zm-2.5,11.8l2.5-1.4-1.2-5-1.2,6.4Z"/></g><g id="Analysis"><polygon class="cls-16" points="66.1 134.3 124.6 100.5 124.6 108.6 66.1 142.4 66.1 134.3"/><polygon class="cls-27" points="68.4 135.7 68.4 138.4 122.2 107.3 122.2 104.6 68.4 135.7"/><polygon class="cls-7" points="66.1 134.3 63.7 133 122.2 99.2 124.6 100.5 66.1 134.3"/><polygon class="cls-27" points="63.7 133 66.1 134.3 66.1 142.4 63.7 141.1 63.7 133"/><polygon class="cls-7" points="234.5 239.7 183.1 269.4 183.1 268.1 234.5 238.4 234.5 239.7"/><path class="cls-8" d="m133.9,158.5l-11.3,6.5-7,4c-.2.1-.4.2-.7.4-2.6,1.6-4.4,4.5-4.4,7.9v32.6c0,3.2-1.5,5.8-3.7,7.5-1.6,1.2-3.6,1.9-5.6,1.9s-3.2-.4-4.7-1.3c-8.7-5-14-14.3-14-24.3v-33.8c0-5-1.3-9.8-3.8-14-2.4-4.2-5.9-7.8-10.3-10.3l51.5-29.7h0c4.3,2.5,7.9,6.1,10.3,10.3,2.4,4.2,3.8,9,3.8,14v14.7c0,4.2,0,13.5,0,13.5Z"/><path class="cls-16" d="m152.6,250.5c-8.7-5-14-14.3-14-24.3v-32.6c0-3.8-.8-7.5-2.2-10.9-.5-1.1-1-2.1-1.6-3.1-2.4-4.2-5.9-7.8-10.3-10.3h0c-6.2-3.6-14,.9-14,8.1v3.3s0-3.3,0-3.3v32.6s0-6.8,0-6.8v6.8c0,7.2-7.8,11.7-14,8.1-8.7-5-14-14.3-14-24.3v-33.8c0-5-1.3-9.8-3.8-14-2.4-4.2-5.9-7.8-10.3-10.3v1.3c8,4.9,12.9,13.6,12.9,23v33.8c0,10.4,5.6,20.1,14.6,25.3,3.3,1.9,7.2,1.9,10.5,0,.2-.1.4-.2.6-.4h0c2.9-2,4.6-5.2,4.6-8.7v-32.6c0-3,1.5-5.6,4.1-7.1,2.6-1.5,5.6-1.5,8.2,0,5.2,3,9.2,7.6,11.4,13,1.3,3.2,2.1,6.7,2.1,10.3v7.6s0,25,0,25c0,10.4,5.6,20.1,14.6,25.3l31,17.9v-1.3l-30.4-17.6Z"/><path class="cls-5" d="m234.5,238.4l-51.5,29.7-30.4-17.6c-8.7-5-14-14.3-14-24.3v-32.6c0-3.8-.8-7.5-2.2-10.9-.5-1.1-1-2.1-1.6-3.1-2.4-4.2-5.9-7.8-10.3-10.3-3-1.7-6.3-1.6-9-.2l7-4,14-8.1,30-17.3h0c2.7-1.6,6.2-1.8,9.3,0,4.3,2.5,7.9,6.1,10.3,10.3,2.4,4.2,3.8,9,3.8,14v32.6c0,10,5.4,19.3,14,24.3l30.4,17.6Z"/><path class="cls-18" d="m137.5,193.6c0-3.6-.7-7.1-2.1-10.3-2.2-5.4-6.2-10-11.4-13-2.6-1.5-5.6-1.5-8.2,0-2.6,1.5-4.1,4.1-4.1,7.1v32.6c0,3.6-1.7,6.8-4.6,8.7h0c-.2.1-.4.3-.6.4l31-17.9v-7.6Z"/><path class="cls-19" d="m137.5,193.6c0-3.6-.7-7.1-2.1-10.3-2.2-5.4-6.2-10-11.4-13-2.6-1.5-5.6-1.5-8.2,0-2.6,1.5-4.1,4.1-4.1,7.1v32.6c0,3.6-1.7,6.8-4.6,8.7h0c-.2.1-.4.3-.6.4l31-17.9v-7.6Z"/><g class="cls-12"><path class="cls-21" d="m77.6,135.8c1.1.9,3,1.1,4.4.3l36.7-21.2c1.4-.8,1.7-2.3.6-3.2-1.1-.9-3.1-.9-4.5-.1l-36.8,21.2c-1.4.8-1.5,2.1-.5,3Z"/><path class="cls-17" d="m107.2,127.8c-.1,0-.3,0-.4-.2-.1-.2,0-.4.1-.6l17.2-9.9c.2-.1.4,0,.6.1.1.2,0,.4-.1.6l-17.2,9.9c0,0-.1,0-.2,0Z"/><path class="cls-17" d="m108.5,130c-.1,0-.3,0-.4-.2-.1-.2,0-.4.1-.6l17.2-9.9c.2-.1.4,0,.6.1.1.2,0,.4-.1.6l-17.2,9.9c0,0-.1,0-.2,0Z"/><path class="cls-17" d="m109.6,132.3c-.1,0-.3,0-.4-.2-.1-.2,0-.4.1-.6l17.2-9.9c.2-.1.4,0,.6.1.1.2,0,.4-.1.6l-17.2,9.9c0,0-.1,0-.2,0Z"/><path class="cls-17" d="m110.5,134.7c-.1,0-.3,0-.4-.2-.1-.2,0-.4.1-.6l17.2-9.9c.2-.1.4,0,.6.1.1.2,0,.4-.1.6l-17.2,9.9c0,0-.1,0-.2,0Z"/><path class="cls-17" d="m111.2,137.1c-.1,0-.3,0-.4-.2-.1-.2,0-.4.1-.6l17.2-9.9c.2-.1.4,0,.6.1.1.2,0,.4-.1.6l-17.2,9.9c0,0-.1,0-.2,0Z"/><path class="cls-17" d="m111.6,139.6c-.1,0-.3,0-.4-.2-.1-.2,0-.4.1-.6l17.2-9.9c.2-.1.4,0,.6.1.1.2,0,.4-.1.6l-17.2,9.9c0,0-.1,0-.2,0Z"/><path class="cls-17" d="m111.8,142.3c-.1,0-.3,0-.4-.2-.1-.2,0-.4.1-.6l17.2-9.9c.2-.1.4,0,.6.1.1.2,0,.4-.1.6l-17.2,9.9c0,0-.1,0-.2,0Z"/><path class="cls-17" d="m87.4,161.5c0,0-.2,0-.2-.1,0-.1,0-.3.1-.4l41.7-24.1c.1,0,.3,0,.4.1,0,.1,0,.3-.1.4l-41.7,24.1s0,0-.1,0Z"/><path class="cls-17" d="m87.4,164c0,0-.2,0-.2-.1,0-.1,0-.3.1-.4l41.7-24.1c.1,0,.3,0,.4.1,0,.1,0,.3-.1.4l-41.7,24.1s0,0-.1,0Z"/><path class="cls-17" d="m87.4,166.6c0,0-.2,0-.2-.1,0-.1,0-.3.1-.4l41.7-24.1c.1,0,.3,0,.4.1,0,.1,0,.3-.1.4l-41.7,24.1s0,0-.1,0Z"/><path class="cls-17" d="m87.4,169.2c0,0-.2,0-.2-.1,0-.1,0-.3.1-.4l41.7-24.1c.1,0,.3,0,.4.1,0,.1,0,.3-.1.4l-41.7,24.1s0,0-.1,0Z"/><path class="cls-17" d="m87.4,157.7c0,0-.2,0-.2-.1,0-.1,0-.3.1-.4l22.1-12.7c.1,0,.3,0,.4.1,0,.1,0,.3-.1.4l-22.1,12.7s0,0-.1,0Z"/><path class="cls-21" d="m86.7,143c.9,1.7,1.6,3.5,2,5.2.5,1.6.8,3.5,1,5.7,0,.4.3.6.7.4l1.2-.7c.3-.2.6-.7.6-1.1-.2-2-.5-4-1-5.9-.6-1.9-1.2-3.6-2-5-.2-.4-.6-.5-1-.3l-1.2.7c-.3.2-.5.6-.3,1Z"/><path class="cls-21" d="m90.4,137.9c1.1,1.7,2.1,3.8,3,6.3.7,2,1.1,4.3,1.3,6.9,0,.4.3.6.7.4l1.2-.7c.3-.2.6-.7.6-1.1-.2-2.3-.6-4.6-1.3-6.9-.8-2.3-1.8-4.4-2.9-6.3-.2-.3-.7-.4-1-.3l-1.2.7c-.3.2-.4.6-.2.9Z"/><path class="cls-21" d="m100.1,140.3l-1.2.7c-.3.2-.5.7-.4,1,.6,1.8.9,3.9,1.1,6.2,0,.4.3.6.7.4l1.2-.7c.3-.2.6-.7.6-1.1-.2-2.1-.5-4.2-1.1-6.2-.1-.4-.5-.5-.8-.3Z"/><path class="cls-21" d="m105,135.4c-.1-.4-.6-.5-.9-.3l-1.2.7c-.3.2-.5.7-.4,1,.2.6.4,1.1.6,1.7.7,2,1.1,4.3,1.3,6.9,0,.4.3.6.7.4l1.2-.7c.3-.2.6-.7.6-1.1-.2-2.3-.6-4.6-1.3-6.9-.2-.6-.4-1.2-.6-1.7Z"/><path class="cls-17" d="m88.2,152.8c0,0-.2-.1-.3,0l-.5.3c-.1-.7-.2-1.4-.4-2.1l.7-.4c0,0,.1-.2,0-.3,0,0-.2-.1-.3,0l-.6.3c-.2-.7-.4-1.4-.6-2.1l.7-.4c0,0,.1-.2,0-.3,0,0-.2-.1-.3,0l-.6.3c-.2-.7-.5-1.3-.7-1.9,0,0,0,0,0,0l.7-.4c0,0,.1-.2,0-.3,0,0-.2-.1-.3,0l-.6.4c-.3-.6-.6-1.3-.9-1.9l.7-.4c0,0,.1-.2,0-.3,0,0-.2-.1-.3,0l-.6.4c-.3-.6-.7-1.2-1.1-1.8l.7-.4c0,0,.1-.2,0-.3,0,0-.2-.1-.3,0l-.8.4c-.4-.6-.9-1.3-1.4-1.9,0,0-.2-.1-.3,0,0,0-.1.2,0,.3.5.6.9,1.2,1.3,1.8l-.7.4c0,0-.1.2,0,.3,0,0,.1.1.2.1s0,0,.1,0l.7-.4c.4.6.8,1.2,1.1,1.8l-.8.5c0,0-.1.2,0,.3,0,0,.1.1.2.1s0,0,.1,0l.8-.5c.3.6.7,1.3.9,1.9l-.8.5c0,0-.1.2,0,.3,0,0,.1.1.2.1s0,0,.1,0l.8-.5s0,0,0,0c.3.6.5,1.3.8,2l-.9.5c0,0-.1.2,0,.3,0,0,.1.1.2.1s0,0,.1,0l.8-.5c.2.7.4,1.4.6,2.1l-.9.5c0,0-.1.2,0,.3,0,0,.1.1.2.1s0,0,.1,0l.8-.4c.2.7.3,1.4.4,2.1l-.9.5c0,0-.1.2,0,.3,0,0,.1.1.2.1s0,0,.1,0l.8-.5c.1.9.2,1.7.2,2.6,0,.1,0,.2.2.2s0,0,0,0c.1,0,.2-.1.2-.2,0-1-.1-1.9-.3-2.8l.6-.4c0,0,.1-.2,0-.3Z"/><g class="cls-14"><path class="cls-21" d="m90.3,192.8c-.2-1.5-.2-3.1-.2-4.6.2-.6,2.7-9.1,7.2-11.8.3-.2.6-.3.9-.4.1,0,.3,0,.4,0,1.2,0,1.8,1.7,2.3,3.3.2.7.4,1.4.7,2,.3.7.8,1.5,1.9,1.5s.8-.1,1.3-.4c2.2-1.3,2.8-4.6,3.5-8.2.3-1.6.6-3.3,1.1-4.8.7-2.1,1.5-3.4,2.7-4.1.4-.2.7-.3,1-.3,1.3,0,1.8,2.3,2.2,4.5.3,1.2.5,2.4.9,3.4.5,1.1,1.1,1.6,1.9,1.6s.8-.1,1.3-.4c2.7-1.6,3.5-4.2,4.3-6.7.7-2.2,1.3-4.2,3.1-5.2.5-.3.9-.4,1.3-.4s.4,0,.6.1c0,.7,0,1.2,0,1.2v5.2c0,1,.1,1.8.2,2.4l-38.7,22.3Z"/><path d="m129.3,170.6c-.1-.8-.2-1.6-.2-2.6v-5.2s0-.6-.1-1.4c-.3-.1-.5-.2-.8-.2h0c-.4,0-.9.1-1.5.5-4,2.3-2.5,9.2-7.4,12-.4.3-.8.4-1.2.4-.7,0-1.2-.6-1.6-1.4-1.2-2.6-1.1-8-3.4-8s-.7.1-1.2.4c-1.4.8-2.3,2.4-2.9,4.2-1.5,4.6-1.4,11.1-4.4,12.8-.4.2-.8.3-1.1.3-.7,0-1.2-.6-1.6-1.4-.9-2-1.3-5.4-3.3-5.4s-.3,0-.4,0c-.3,0-.6.2-1,.4-4.9,2.8-7.4,12-7.4,12,0,1.8,0,3.5.2,5.2l.6-.3c0-.2,0-.3,0-.6-.1-1.4-.2-2.8-.1-4.1.2-.8,2.7-9,7.1-11.6.3-.2.6-.3.8-.3.1,0,.2,0,.3,0,1,0,1.5,1.6,2,3.1.2.7.5,1.4.7,2,.2.4.8,1.7,2.1,1.7s.9-.1,1.4-.4c2.3-1.3,3-4.8,3.6-8.4.3-1.6.6-3.3,1.1-4.7.6-2,1.5-3.3,2.6-3.9.3-.2.6-.3.9-.3,1,0,1.5,2.3,1.9,4.2.3,1.2.5,2.5.9,3.4.5,1.2,1.2,1.7,2.1,1.7s.9-.1,1.5-.5c2.8-1.6,3.7-4.4,4.4-6.9.7-2.1,1.3-4.1,3-5.1.4-.2.8-.4,1.2-.4h0c.1,0,.2,0,.3,0,0,.6,0,1,0,1v5.2c0,.9.1,1.6.2,2.3,0,.3,0,.5.1.6l.5-.3"/></g><g class="cls-10"><path class="cls-21" d="m89.8,185.5v2.6c0,1.8,0,3.5.2,5.2l39.2-22.6c-.1-.8-.2-1.6-.2-2.6v-5.2s0-7.7-4.9-4.9c-5.2,3-3.7,12.4-7.4,14.5-3.7,2.1-2.5-6.3-7.4-3.5-4.9,2.8-2.5,9.1-7.4,12-4.9,2.8-2.5-11.4-7.4-8.6-4.9,2.8-4.9,9.9-4.9,13.1Z"/></g><path class="cls-17" d="m88,197.2c0,0-.1,0-.2-.1,0,0,0-.2,0-.3l41.7-23.9c0,0,.2,0,.3,0,0,0,0,.2,0,.3l-41.7,23.9s0,0-.1,0Z"/><path class="cls-2" d="m94.7,173.7c-.1,0-.2,0-.2-.2v-.4c0-.1,0-.2.2-.2s.2,0,.2.2v.4c0,.1,0,.2-.2.2Z"/><path class="cls-2" d="m94.8,189.4c-.1,0-.2,0-.2-.2,0-.3,0-.5,0-.8,0-.1,0-.2.2-.2.1,0,.2,0,.2.2,0,.3,0,.5,0,.8,0,.1,0,.2-.2.2,0,0,0,0,0,0Zm0-1.6c-.1,0-.2,0-.2-.2,0-.2,0-.5,0-.8,0-.1,0-.2.2-.2.1,0,.2,0,.2.2,0,.3,0,.6,0,.8,0,.1,0,.2-.2.2h0Zm0-1.6c-.1,0-.2,0-.2-.2v-.8c0-.1,0-.2.2-.2h0c.1,0,.2,0,.2.2v.8c0,.1,0,.2-.2.2h0Zm0-1.6c-.1,0-.2,0-.2-.2v-.8c0-.1,0-.2.2-.2h0c.1,0,.2,0,.2.2v.8c0,.1,0,.2-.2.2h0Zm0-1.6c-.1,0-.2,0-.2-.2v-.8c0-.1,0-.2.2-.2s.2,0,.2.2v.8c0,.1,0,.2-.2.2Zm0-1.6c-.1,0-.2,0-.2-.2v-.8c0-.1,0-.2.2-.2s.2,0,.2.2v.8c0,.1,0,.2-.2.2Zm0-1.6c-.1,0-.2,0-.2-.2v-.8c0-.1,0-.2.2-.2s.2,0,.2.2v.8c0,.1,0,.2-.2.2Zm0-1.6h0c-.1,0-.2,0-.2-.2v-.8c0-.1,0-.2.2-.2s.2,0,.2.2v.8c0,.1,0,.2-.2.2Zm0-1.6h0c-.1,0-.2,0-.2-.2v-.8c0-.1,0-.2.2-.2s.2,0,.2.2v.8c0,.1,0,.2-.2.2Zm0-1.6c-.1,0-.2,0-.2-.2v-.8c0-.1,0-.2.2-.2h0c.1,0,.2,0,.2.2v.8c0,.1,0,.2-.2.2Z"/><path class="cls-2" d="m95,190.6c-.1,0-.2,0-.2-.2,0-.1,0-.3,0-.4,0-.1,0-.2.2-.2.1,0,.2,0,.2.2,0,.1,0,.3,0,.4,0,.1,0,.2-.2.2,0,0,0,0,0,0Z"/><path class="cls-2" d="m124.1,158.6c-.1,0-.2,0-.2-.2v-.4c0-.1,0-.2.2-.2h0c.1,0,.2,0,.2.2v.4c0,.1,0,.2-.2.2Z"/><path class="cls-2" d="m124.2,174.3c-.1,0-.2,0-.2-.2,0-.3,0-.5,0-.8,0-.1,0-.2.2-.2.1,0,.2,0,.2.2,0,.3,0,.5,0,.8,0,.1,0,.2-.2.2,0,0,0,0,0,0Zm0-1.6c-.1,0-.2,0-.2-.2,0-.2,0-.5,0-.8,0-.1,0-.2.2-.2h0c.1,0,.2,0,.2.2,0,.3,0,.6,0,.8,0,.1,0,.2-.2.2h0Zm0-1.6c-.1,0-.2,0-.2-.2v-.8c0-.1,0-.2.2-.2h0c.1,0,.2,0,.2.2v.8c0,.1,0,.2-.2.2h0Zm0-1.6c-.1,0-.2,0-.2-.2v-.8c0-.1,0-.2.2-.2h0c.1,0,.2,0,.2.2v.8c0,.1,0,.2-.2.2h0Zm0-1.6c-.1,0-.2,0-.2-.2v-.8c0-.1,0-.2.2-.2s.2,0,.2.2v.8c0,.1,0,.2-.2.2Zm0-1.6c-.1,0-.2,0-.2-.2v-.8c0-.1,0-.2.2-.2s.2,0,.2.2v.8c0,.1,0,.2-.2.2Zm0-1.6c-.1,0-.2,0-.2-.2v-.8c0-.1,0-.2.2-.2s.2,0,.2.2v.8c0,.1,0,.2-.2.2Zm0-1.6h0c-.1,0-.2,0-.2-.2v-.8c0-.1,0-.2.2-.2s.2,0,.2.2v.8c0,.1,0,.2-.2.2Zm0-1.6h0c-.1,0-.2,0-.2-.2v-.8c0-.1,0-.2.2-.2s.2,0,.2.2v.8c0,.1,0,.2-.2.2Zm0-1.6h0c-.1,0-.2,0-.2-.2v-.8c0-.1,0-.2.2-.2s.2,0,.2.2v.8c0,.1,0,.2-.2.2Z"/><path class="cls-2" d="m124.4,175.4c-.1,0-.2,0-.2-.2,0-.1,0-.3,0-.4,0-.1,0-.2.2-.2.1,0,.2,0,.2.2,0,.1,0,.3,0,.4,0,.1,0,.2-.2.2,0,0,0,0,0,0Z"/><path class="cls-2" d="m109.4,170.3c-.1,0-.2,0-.2-.2v-.4c0-.1,0-.2.2-.2s.2,0,.2.2v.4c0,.1,0,.2-.2.2Z"/><path class="cls-2" d="m109.5,181.1c-.1,0-.2,0-.2-.2,0-.3,0-.5,0-.8,0-.1,0-.2.2-.2.1,0,.2,0,.2.2,0,.3,0,.5,0,.8,0,.1,0,.2-.2.2,0,0,0,0,0,0Zm0-1.5c-.1,0-.2,0-.2-.2v-.8c0-.1,0-.2.2-.2h0c.1,0,.2,0,.2.2v.8c0,.1,0,.2-.2.2h0Zm0-1.5c-.1,0-.2,0-.2-.2v-.8c0-.1,0-.2.2-.2h0c.1,0,.2,0,.2.2v.8c0,.1,0,.2-.2.2h0Zm0-1.5c-.1,0-.2,0-.2-.2v-.8c0-.1,0-.2.2-.2h0c.1,0,.2,0,.2.2v.8c0,.1,0,.2-.2.2h0Zm0-1.5c-.1,0-.2,0-.2-.2v-.8c0-.1,0-.2.2-.2s.2,0,.2.2v.8c0,.1,0,.2-.2.2Zm0-1.5h0c-.1,0-.2,0-.2-.2v-.8c0-.1,0-.2.2-.2s.2,0,.2.2v.8c0,.1,0,.2-.2.2Zm0-1.5h0c-.1,0-.2,0-.2-.2v-.8c0-.1,0-.2.2-.2s.2,0,.2.2v.8c0,.1,0,.2-.2.2Z"/><path class="cls-2" d="m109.7,182.2c-.1,0-.2,0-.2-.2,0-.1,0-.3,0-.4,0-.1,0-.2.2-.2.1,0,.2,0,.2.2,0,.1,0,.3,0,.4,0,.1,0,.2-.2.2,0,0,0,0,0,0Z"/><path class="cls-17" d="m94.7,171.6c.4-.2.7,0,.7.3s-.3.9-.7,1.1c-.4.2-.7,0-.7-.3,0-.4.3-.9.7-1.1Z"/><path class="cls-17" d="m109.4,168.2c.4-.2.7,0,.7.3s-.3.9-.7,1.1c-.4.2-.7,0-.7-.3s.3-.9.7-1.1Z"/><path class="cls-17" d="m124.1,157.2c.4-.2.7,0,.7.3s-.3.9-.7,1.1c-.4.2-.7,0-.7-.3s.3-.9.7-1.1Z"/><path class="cls-17" d="m88.3,176.3c0,0,.1-.2,0-.3,0,0-.2-.1-.3,0l-.5.3v-2.1l.7-.4c0,0,.1-.2,0-.3,0,0-.2-.1-.3,0l-.5.3v-2.2c0-.1,0-.2-.2-.2s-.2,0-.2.2v2.5l-.7.4c0,0-.1.2,0,.3,0,0,.1.1.2.1s0,0,.1,0l.5-.3v2.1l-.7.4c0,0-.1.2,0,.3,0,0,.1.1.2.1s0,0,.1,0l.5-.3v2.1l-.7.4c0,0-.1.2,0,.3,0,0,.1.1.2.1s0,0,.1,0l.5-.3v2.1l-.7.4c0,0-.1.2,0,.3,0,0,.1.1.2.1s0,0,.1,0l.5-.3v2.1l-.7.4c0,0-.1.2,0,.3,0,0,.1.1.2.1s0,0,.1,0l.5-.3v2.1l-.7.4c0,0-.1.2,0,.3,0,0,.1.1.2.1s0,0,.1,0l.5-.3v2.1l-.7.4c0,0-.1.2,0,.3,0,0,.1.1.2.1s0,0,.1,0l.5-.3c0,.7,0,1.4,0,2.1l-.8.4c0,0-.1.2,0,.3,0,0,.1.1.2.1s0,0,.1,0l.6-.3c0,.8.1,1.5.2,2.3,0,.1.1.2.2.2s0,0,0,0c.1,0,.2-.1.2-.2-.1-.8-.2-1.6-.2-2.5l.7-.4c0,0,.1-.2,0-.3,0,0-.2-.1-.3,0l-.5.3c0-.7,0-1.4,0-2.1l.7-.4c0,0,.1-.2,0-.3,0,0-.2-.1-.3,0l-.5.3v-2.1l.7-.4c0,0,.1-.2,0-.3,0,0-.2-.1-.3,0l-.5.3v-2.1l.7-.4c0,0,.1-.2,0-.3,0,0-.2-.1-.3,0l-.5.3v-2.1l.7-.4c0,0,.1-.2,0-.3,0,0-.2-.1-.3,0l-.5.3v-2.1l.7-.4c0,0,.1-.2,0-.3,0,0-.2-.1-.3,0l-.5.3v-2.1l.7-.4Z"/><path class="cls-21" d="m139.4,188.9l-39.2,22.6c-1.4.8-3.4.7-4.4-.3-1-1-.6-2.6.8-3.4l39.2-22.6c1.4-.8,3.2-.5,4.2.5,1,1,.8,2.4-.6,3.2Z"/><path class="cls-17" d="m88.7,200c0,0-.2,0-.2-.1,0-.1,0-.3.1-.4l44.1-25.5c.1,0,.3,0,.4.1,0,.1,0,.3-.1.4l-44.1,25.5s0,0-.1,0Z"/><path class="cls-17" d="m89.7,202.3c0,0-.2,0-.2-.1,0-.1,0-.3.1-.4l44.2-25.5c.1,0,.3,0,.4.1,0,.1,0,.3-.1.4l-44.2,25.5s0,0-.1,0Z"/><path class="cls-17" d="m90.8,204.6c0,0-.2,0-.2-.1,0-.1,0-.3.1-.4l44.2-25.5c.1,0,.3,0,.4.1,0,.1,0,.3-.1.4l-44.2,25.5s0,0-.1,0Z"/><path class="cls-17" d="m92.1,206.8c0,0-.2,0-.2-.1,0-.1,0-.3.1-.4l44.2-25.5c.1,0,.3,0,.4.1,0,.1,0,.3-.1.4l-44.2,25.5s0,0-.1,0Z"/></g><path class="cls-21" d="m130.6,164.6l36.3-21c1.4-.8,3.6-1.3,4.8-.8,1.2.5,1,1.8-.4,2.6l-36.7,21.2c-1.4.8-3.3.9-4.4.3-1.1-.6-.9-1.6.4-2.3Z"/><path class="cls-17" d="m134.8,170.4c0,0-.2,0-.2-.1,0-.1,0-.3.1-.4l41.9-24.2c.1,0,.3,0,.4.1,0,.1,0,.3-.1.4l-41.9,24.2s0,0-.1,0Z"/><path class="cls-17" d="m136.6,172.2c0,0-.2,0-.2-.1,0-.1,0-.3.1-.4l41.9-24.2c.1,0,.3,0,.4.1,0,.1,0,.3-.1.4l-41.9,24.2s0,0-.1,0Z"/><path class="cls-17" d="m143.5,193.6h0c-.1,0-.2,0-.2-.2v-2.2q0-1.7,0-2.8v-.2c-.2-2.7-.7-5.3-1.5-7.6-.7-2.2-2-4.4-3.8-6.6,0,0,0-.2,0-.3,0,0,.2,0,.3,0,1.8,2.3,3.1,4.5,3.8,6.7.8,2.3,1.4,4.9,1.5,7.7v.2q0,1.1,0,2.8v2.2c0,.1,0,.2-.2.2Z"/><path class="cls-21" d="m143.1,176.2c-.2-.3-.4-.6-.6-1-.2-.3-.1-.7.2-.9l16-9.2c.3-.2.8,0,1,.2.2.3.4.6.6,1,.2.4,0,.8-.3,1l-15.9,9.2c-.3.2-.8,0-1-.3Z"/><path class="cls-21" d="m144.6,179.8c.1.4.2.7.3,1.1.1.4.5.5.8.3l38-21.9c.3-.2.5-.7.4-1.1-.1-.4-.2-.7-.3-1.1-.1-.4-.5-.5-.9-.3l-38,21.9c-.3.2-.5.7-.4,1Z"/><path class="cls-4" d="m144.6,179.8c.1.4.2.7.3,1.1.1.4.5.5.8.3l38-21.9c.3-.2.5-.7.4-1.1-.1-.4-.2-.7-.3-1.1-.1-.4-.5-.5-.9-.3l-38,21.9c-.3.2-.5.7-.4,1Z"/><path class="cls-21" d="m145.8,184.9c0,.4,0,.8.1,1.2,0,.4.3.6.7.4l25.7-14.8c.3-.2.6-.7.6-1.1,0-.4,0-.8-.1-1.2,0-.4-.4-.6-.7-.4l-25.7,14.8c-.3.2-.6.7-.5,1.1Z"/><path class="cls-19" d="m145.8,184.9c0,.4,0,.8.1,1.2,0,.4.3.6.7.4l25.7-14.8c.3-.2.6-.7.6-1.1,0-.4,0-.8-.1-1.2,0-.4-.4-.6-.7-.4l-25.7,14.8c-.3.2-.6.7-.5,1.1Z"/><path class="cls-21" d="m146,190.1v1.2c0,.4.3.6.6.4l11-6.4c.3-.2.6-.7.6-1.1v-1.2c0-.4-.3-.6-.6-.4l-11,6.4c-.3.2-.6.7-.6,1.1Z"/><path class="cls-3" d="m146,190.1v1.2c0,.4.3.6.6.4l11-6.4c.3-.2.6-.7.6-1.1v-1.2c0-.4-.3-.6-.6-.4l-11,6.4c-.3.2-.6.7-.6,1.1Z"/><path class="cls-17" d="m185.2,171.9c-.1,0-.2,0-.2.2v1l-2.9,1.7v-.7c0-.1,0-.2-.2-.2s-.2,0-.2.2v1l-2.9,1.7v-.7c0-.1,0-.2-.2-.2s-.2,0-.2.2v1l-2.9,1.7v-.7c0-.1,0-.2-.2-.2s-.2,0-.2.2v1l-2.9,1.7v-.7c0-.1,0-.2-.2-.2s-.2,0-.2.2v.9l-2.9,1.7v-.7c0-.1,0-.2-.2-.2s-.2,0-.2.2v.9l-2.9,1.7v-.7c0-.1,0-.2-.2-.2s-.2,0-.2.2v.9l-2.9,1.7v-.7c0-.1,0-.2-.2-.2s-.2,0-.2.2v.9l-2.9,1.7v-.6c0-.1,0-.2-.2-.2s-.2,0-.2.2v.9l-2.9,1.7v-.6c0-.1,0-.2-.2-.2s-.2,0-.2.2v.9l-2.9,1.7v-.6c0-.1,0-.2-.2-.2s-.2,0-.2.2v.9l-2.9,1.7v-.6c0-.1,0-.2-.2-.2s-.2,0-.2.2v.8l-2.5,1.5c0,0-.1.2,0,.3,0,0,.1.1.2.1s0,0,.1,0l2.3-1.4v.8c0,.1,0,.2.2.2s.2,0,.2-.2v-1.1l2.9-1.7v.8c0,.1,0,.2.2.2s.2,0,.2-.2v-1.1l2.9-1.7v.8c0,.1,0,.2.2.2s.2,0,.2-.2v-1l2.9-1.7v.8c0,.1,0,.2.2.2s.2,0,.2-.2v-1l2.9-1.7v.8c0,.1,0,.2.2.2s.2,0,.2-.2v-1l2.9-1.7v.8c0,.1,0,.2.2.2s.2,0,.2-.2v-1l2.9-1.7v.7c0,.1,0,.2.2.2s.2,0,.2-.2v-1l2.9-1.7v.7c0,.1,0,.2.2.2s.2,0,.2-.2v-1l2.9-1.7v.7c0,.1,0,.2.2.2s.2,0,.2-.2v-1l2.9-1.7v.7c0,.1,0,.2.2.2s.2,0,.2-.2v-.9l2.9-1.7v.7c0,.1,0,.2.2.2s.2,0,.2-.2v-.9l2.9-1.7v.7c0,.1,0,.2.2.2s.2,0,.2-.2v-2.1c0-.1,0-.2-.2-.2Z"/><path class="cls-21" d="m153,198.8c-.7.1-1.4.4-2.1.9-4.1,2.4-7.4,8.4-7.4,13.3s0,.3,0,.4l7.3-3.4,2.1-11.2Z"/><path class="cls-21" d="m153,198.8l-2.1,11.2,7.3-4.2c0-.5,0-.9,0-1.4,0-4.1-2.2-6.3-5.2-5.6Z"/><path class="cls-21" d="m157.2,209.6c.5-1.2.8-2.5.9-3.8l-7.3,4.2,6.4-.4Z"/><path class="cls-21" d="m143.5,213.4c.2,4.7,3.4,6.7,7.3,4.4,2.7-1.6,5.1-4.7,6.3-8.2l-6.4.4-7.3,3.4Z"/><path class="cls-4" d="m153,198.8l-2.1,11.2,7.3-4.2c0-.5,0-.9,0-1.4,0-4.1-2.2-6.3-5.2-5.6Z"/><path class="cls-19" d="m157.2,209.6c.5-1.2.8-2.5.9-3.8l-7.3,4.2,6.4-.4Z"/><path class="cls-3" d="m143.5,213.4c.2,4.7,3.4,6.7,7.3,4.4,2.7-1.6,5.1-4.7,6.3-8.2l-6.4.4-7.3,3.4Z"/><path class="cls-9" d="m153,198.8c-.7.1-1.4.4-2.1.9-4.1,2.4-7.4,8.4-7.4,13.3s0,.3,0,.4l7.3-3.4,2.1-11.2Z"/><path class="cls-9" d="m153,198.8l-2.1,11.2,7.3-4.2c0-.5,0-.9,0-1.4,0-4.1-2.2-6.3-5.2-5.6Z"/><path class="cls-9" d="m157.2,209.6c.5-1.2.8-2.5.9-3.8l-7.3,4.2,6.4-.4Z"/><path class="cls-9" d="m143.5,213.4c.2,4.7,3.4,6.7,7.3,4.4,2.7-1.6,5.1-4.7,6.3-8.2l-6.4.4-7.3,3.4Z"/><path class="cls-21" d="m174.5,186.9c-2.4,2.9-4,6.9-4,10.4s.3,2.9.9,3.9l6.4-8.1-3.3-6.2Z"/><path class="cls-21" d="m181.1,183.1c-1,0-2.1.3-3.3.9-1.2.7-2.3,1.7-3.3,2.9l3.3,6.2,3.3-10Z"/><path class="cls-21" d="m184.5,185.4c-.7-1.5-1.9-2.3-3.4-2.4l-3.3,10,6.7-7.7Z"/><path class="cls-21" d="m184.5,185.4l-6.7,7.7-6.4,8.1c1.3,2.1,3.7,2.5,6.4,1,4.1-2.3,7.4-8.3,7.4-13.3s-.2-2.5-.7-3.4Z"/><path class="cls-4" d="m181.1,183.1c-1,0-2.1.3-3.3.9-1.2.7-2.3,1.7-3.3,2.9l3.3,6.2,3.3-10Z"/><path class="cls-19" d="m184.5,185.4c-.7-1.5-1.9-2.3-3.4-2.4l-3.3,10,6.7-7.7Z"/><path class="cls-3" d="m184.5,185.4l-6.7,7.7-6.4,8.1c1.3,2.1,3.7,2.5,6.4,1,4.1-2.3,7.4-8.3,7.4-13.3s-.2-2.5-.7-3.4Z"/><path class="cls-9" d="m174.5,186.9c-2.4,2.9-4,6.9-4,10.4s.3,2.9.9,3.9l6.4-8.1-3.3-6.2Z"/><path class="cls-9" d="m181.1,183.1c-1,0-2.1.3-3.3.9-1.2.7-2.3,1.7-3.3,2.9l3.3,6.2,3.3-10Z"/><path class="cls-9" d="m184.5,185.4c-.7-1.5-1.9-2.3-3.4-2.4l-3.3,10,6.7-7.7Z"/><path class="cls-9" d="m184.5,185.4l-6.7,7.7-6.4,8.1c1.3,2.1,3.7,2.5,6.4,1,4.1-2.3,7.4-8.3,7.4-13.3s-.2-2.5-.7-3.4Z"/><path class="cls-21" d="m161.3,193.6l1.2-.7c.3-.2.6,0,.6.4v1.2c0,.4-.3.9-.6,1.1l-1.2.7c-.3.2-.6,0-.6-.4v-1.2c0-.4.3-.9.6-1.1Z"/><path class="cls-21" d="m161.3,198.7l1.2-.7c.3-.2.6,0,.6.4v1.2c0,.4-.3.9-.6,1.1l-1.2.7c-.3.2-.6,0-.6-.4v-1.2c0-.4.3-.9.6-1.1Z"/><path class="cls-4" d="m161.3,198.7l1.2-.7c.3-.2.6,0,.6.4v1.2c0,.4-.3.9-.6,1.1l-1.2.7c-.3.2-.6,0-.6-.4v-1.2c0-.4.3-.9.6-1.1Z"/><path class="cls-21" d="m161.3,203.9l1.2-.7c.3-.2.6,0,.6.4v1.2c0,.4-.3.9-.6,1.1l-1.2.7c-.3.2-.6,0-.6-.4v-1.2c0-.4.3-.9.6-1.1Z"/><path class="cls-19" d="m161.3,203.9l1.2-.7c.3-.2.6,0,.6.4v1.2c0,.4-.3.9-.6,1.1l-1.2.7c-.3.2-.6,0-.6-.4v-1.2c0-.4.3-.9.6-1.1Z"/><path class="cls-21" d="m161.3,209.1l1.2-.7c.3-.2.6,0,.6.4v1.2c0,.4-.3.9-.6,1.1l-1.2.7c-.3.2-.6,0-.6-.4v-1.2c0-.4.3-.9.6-1.1Z"/><path class="cls-3" d="m161.3,209.1l1.2-.7c.3-.2.6,0,.6.4v1.2c0,.4-.3.9-.6,1.1l-1.2.7c-.3.2-.6,0-.6-.4v-1.2c0-.4.3-.9.6-1.1Z"/><path class="cls-17" d="m164.4,193.4c-.1,0-.3,0-.4-.2-.1-.2,0-.4.1-.6l3.7-2.1c.2-.1.4,0,.6.1.1.2,0,.4-.1.6l-3.7,2.1c0,0-.1,0-.2,0Z"/><path class="cls-17" d="m164.3,198.7c-.1,0-.3,0-.4-.2-.1-.2,0-.4.1-.6l3.7-2.1c.2-.1.4,0,.6.1.1.2,0,.4-.1.6l-3.7,2.1c0,0-.1,0-.2,0Z"/><path class="cls-17" d="m164.2,203.9c-.1,0-.3,0-.4-.2-.1-.2,0-.4.1-.6l3.7-2.1c.2-.1.4,0,.6.1.1.2,0,.4-.1.6l-3.7,2.1c0,0-.1,0-.2,0Z"/><path class="cls-17" d="m164.2,209.2c-.1,0-.3,0-.4-.2-.1-.2,0-.4.1-.6l3.7-2.1c.2-.1.4,0,.6.1.1.2,0,.4-.1.6l-3.7,2.1c0,0-.1,0-.2,0Z"/><path class="cls-17" d="m144,227.6c-.1,0-.3,0-.4-.2-.1-.2,0-.4.1-.6l17.2-9.9c.2-.1.4,0,.6.1.1.2,0,.4-.1.6l-17.2,9.9c0,0-.1,0-.2,0Z"/><path class="cls-17" d="m144.5,230.1c-.1,0-.3,0-.4-.2-.1-.2,0-.4.1-.6l17.2-9.9c.2-.1.4,0,.6.1.1.2,0,.4-.1.6l-17.2,9.9c0,0-.1,0-.2,0Z"/><path class="cls-17" d="m145.3,232.6c-.1,0-.3,0-.4-.2-.1-.2,0-.4.1-.6l17.2-9.9c.2-.1.4,0,.6.1.1.2,0,.4-.1.6l-17.2,9.9c0,0-.1,0-.2,0Z"/><path class="cls-17" d="m170.9,212.1c-.1,0-.3,0-.4-.2-.1-.2,0-.4.1-.6l17.2-9.9c.2-.1.4,0,.6.1.1.2,0,.4-.1.6l-17.2,9.9c0,0-.1,0-.2,0Z"/><path class="cls-17" d="m171.5,214.6c-.1,0-.3,0-.4-.2-.1-.2,0-.4.1-.6l17.2-9.9c.2-.1.4,0,.6.1.1.2,0,.4-.1.6l-17.2,9.9c0,0-.1,0-.2,0Z"/><path class="cls-17" d="m172.3,217.1c-.1,0-.3,0-.4-.2-.1-.2,0-.4.1-.6l17.2-9.9c.2-.1.4,0,.6.1.1.2,0,.4-.1.6l-17.2,9.9c0,0-.1,0-.2,0Z"/><path class="cls-21" d="m150,235.4l39.1-22.6c1.4-.8,3.1-.4,3.9.7.8,1.1.5,2.6-.9,3.4l-39.1,22.6c-1.4.8-3.3.6-4.1-.6-.8-1.1-.3-2.8,1.1-3.6Z"/><path class="cls-17" d="m156.5,246.4c-.1,0-.3,0-.4-.2-.1-.2,0-.4.1-.6l17.2-9.9c.2-.1.4,0,.6.1.1.2,0,.4-.1.6l-17.2,9.9c0,0-.1,0-.2,0Z"/><path class="cls-17" d="m154.3,244.9c-.1,0-.3,0-.4-.2-.1-.2,0-.4.1-.6l17.2-9.9c.2-.1.4,0,.6.1.1.2,0,.4-.1.6l-17.2,9.9c0,0-.1,0-.2,0Z"/><path class="cls-17" d="m158.7,247.8c-.1,0-.3,0-.4-.2-.1-.2,0-.4.1-.6l17.2-9.9c.2-.1.4,0,.6.1.1.2,0,.4-.1.6l-17.2,9.9c0,0-.1,0-.2,0Z"/><path class="cls-17" d="m181,232.3c-.1,0-.3,0-.4-.2-.1-.2,0-.4.1-.6l17.2-9.9c.2-.1.4,0,.6.1.1.2,0,.4-.1.6l-17.2,9.9c0,0-.1,0-.2,0Z"/><path class="cls-17" d="m178.8,230.8c-.1,0-.3,0-.4-.2-.1-.2,0-.4.1-.6l17.2-9.9c.2-.1.4,0,.6.1.1.2,0,.4-.1.6l-17.2,9.9c0,0-.1,0-.2,0Z"/><path class="cls-17" d="m183.2,233.6c-.1,0-.3,0-.4-.2-.1-.2,0-.4.1-.6l17.2-9.9c.2-.1.4,0,.6.1.1.2,0,.4-.1.6l-17.2,9.9c0,0-.1,0-.2,0Z"/><path class="cls-21" d="m183.5,246c-3.7-2.2-10-2-14.1.3-4.1,2.3-4.3,6-.6,8.1,3.7,2.2,10,2,14.1-.3,4.1-2.3,4.3-6,.6-8.1Zm-2.5,7c-2.9,1.7-7.4,1.8-10.1.2-2.7-1.5-2.5-4.1.4-5.8,2.9-1.7,7.4-1.8,10.1-.2,2.7,1.5,2.5,4.1-.4,5.8Z"/><path class="cls-21" d="m173.3,248.6c1.7-1,4.4-1.1,6-.1,1.6.9,1.5,2.5-.3,3.5s-4.4,1.1-6,.1-1.5-2.5.3-3.5Z"/><path class="cls-6" d="m173.3,248.6c1.7-1,4.4-1.1,6-.1,1.6.9,1.5,2.5-.3,3.5s-4.4,1.1-6,.1-1.5-2.5.3-3.5Z"/><path class="cls-19" d="m183.5,246c-3.7-2.2-10-2-14.1.3-4.1,2.3-4.3,6-.6,8.1,3.7,2.2,10,2,14.1-.3,4.1-2.3,4.3-6,.6-8.1Zm-2.5,7c-2.9,1.7-7.4,1.8-10.1.2-2.7-1.5-2.5-4.1.4-5.8,2.9-1.7,7.4-1.8,10.1-.2,2.7,1.5,2.5,4.1-.4,5.8Z"/><path class="cls-21" d="m173.2,244.9l.9,1.5c1.6-.4,3.4-.4,5,0l1.1-1.6c-2.2-.4-4.7-.4-7,.1Z"/><path class="cls-4" d="m173.2,244.9l.9,1.5c1.6-.4,3.4-.4,5,0l1.1-1.6c-2.2-.4-4.7-.4-7,.1Z"/><path class="cls-17" d="m176.7,244.2s0,0,0,0c-.2,0-.4-.2-.4-.4v-1.9c.1,0,7.7-4.4,7.7-4.4.2-.1.4,0,.6.1.1.2,0,.4-.1.6l-7.2,4.1v1.4c0,.2-.3.4-.5.4Z"/><path class="cls-21" d="m205.6,233.3c-3.7-2.2-10-2-14.1.3-4.1,2.3-4.3,6-.6,8.1,3.7,2.2,10,2,14.1-.3,4.1-2.3,4.3-6,.6-8.1Zm-2.5,7c-2.9,1.7-7.4,1.8-10.1.2-2.7-1.5-2.5-4.1.4-5.8,2.9-1.7,7.4-1.8,10.1-.2,2.7,1.5,2.5,4.1-.4,5.8Z"/><path class="cls-21" d="m195.3,235.8c1.7-1,4.4-1.1,6-.1,1.6.9,1.5,2.5-.3,3.5s-4.4,1.1-6,.1-1.5-2.5.3-3.5Z"/><path class="cls-6" d="m195.3,235.8c1.7-1,4.4-1.1,6-.1,1.6.9,1.5,2.5-.3,3.5s-4.4,1.1-6,.1-1.5-2.5.3-3.5Z"/><path class="cls-19" d="m205.6,233.3c-3.7-2.2-10-2-14.1.3-4.1,2.3-4.3,6-.6,8.1,3.7,2.2,10,2,14.1-.3,4.1-2.3,4.3-6,.6-8.1Zm-2.5,7c-2.9,1.7-7.4,1.8-10.1.2-2.7-1.5-2.5-4.1.4-5.8,2.9-1.7,7.4-1.8,10.1-.2,2.7,1.5,2.5,4.1-.4,5.8Z"/><path class="cls-21" d="m205.6,233.3c-3.1-1.8-8.1-2-12.1-.6l1.3,1.4c2.8-1,6.4-.9,8.6.4.4.2.7.5,1,.8l2.5-.9c-.4-.4-.9-.8-1.4-1.1Z"/><path class="cls-4" d="m205.6,233.3c-3.1-1.8-8.1-2-12.1-.6l1.3,1.4c2.8-1,6.4-.9,8.6.4.4.2.7.5,1,.8l2.5-.9c-.4-.4-.9-.8-1.4-1.1Z"/><path class="cls-17" d="m198.8,231.4s0,0,0,0c-.2,0-.4-.2-.4-.4v-1.9c.1,0,7.7-4.4,7.7-4.4.2-.1.4,0,.6.1.1.2,0,.4-.1.6l-7.2,4.1v1.4c0,.2-.3.4-.5.4Z"/><path class="cls-17" d="m179,259.5c-.1,0-.3,0-.4-.2-.1-.2,0-.4.1-.6l41.7-24c.2-.1.4,0,.6.1.1.2,0,.4-.1.6l-41.7,24c0,0-.1,0-.2,0Z"/><path class="cls-17" d="m181.2,260.8c-.1,0-.3,0-.4-.2-.1-.2,0-.4.1-.6l41.7-24c.2-.1.4,0,.6.1.1.2,0,.4-.1.6l-41.7,24c0,0-.1,0-.2,0Z"/><path class="cls-17" d="m183.5,262.1c-.1,0-.3,0-.4-.2-.1-.2,0-.4.1-.6l41.7-24c.2-.1.4,0,.6.1.1.2,0,.4-.1.6l-41.7,24c0,0-.1,0-.2,0Z"/></g><ellipse id="Shadow-3" class="cls-18" cx="234.5" cy="204.3" rx="32.5" ry="18.8"/><g id="Character"><polygon class="cls-7" points="220.9 120.3 208.2 124.7 207.9 125.3 220 144.4 232 139 232.3 138.4 220.9 120.3"/><polygon class="cls-16" points="221.3 119.7 208.2 124.7 220.3 143.8 232.3 138.4 221.3 119.7"/><polygon class="cls-1" points="221.4 121.6 210.3 126.2 220.4 141.9 230.6 136.9 221.4 121.6"/><path class="cls-19" d="m219,123.3s-.3-.3-.6-.7c-.3-.4-1.3-.4-2.3,0l-1.7.6c-.9.3-1.4.9-1,1.3l.6.7,5-1.9Z"/><path class="cls-21" d="m217.3,120.7c-.2-.2-.7-.3-1-.2l-.7.3s-1.3-1.5-3-1-.2,2.2-.2,2.2c0,0-.3.1-.7.3-.4.2-.5.5-.4.7l.3.4,6-2.3s-.2-.2-.4-.4Z"/><path class="cls-19" d="m217.3,120.7c-.2-.2-.7-.3-1-.2l-.7.3s-1.3-1.5-3-1-.2,2.2-.2,2.2c0,0-.3.1-.7.3-.4.2-.5.5-.4.7l.3.4,6-2.3s-.2-.2-.4-.4Z"/><path class="cls-21" d="m216.9,121.4c-.6.2-.8.3-.3.9.6.7,1.1,1.2,1.1,1.2l-2.6,1s-.7-.9-1.1-1.2c-.3-.3-.7-.5-1.1-.4l-.3-.3,4.2-1.5v.3Z"/><path class="cls-17" d="m216.9,121.4c-.6.2-.8.3-.3.9.6.7,1.1,1.2,1.1,1.2l-2.6,1s-.7-.9-1.1-1.2c-.3-.3-.7-.5-1.1-.4l-.3-.3,4.2-1.5v.3Z"/><path class="cls-21" d="m219.1,123.4s-.3-.3-.6-.7c-.3-.4-1.4-.4-2.3,0l-1.7.6c-.9.3-1.4.9-1,1.3l.6.7,5-1.9Z"/><path class="cls-19" d="m219.1,123.4s-.3-.3-.6-.7c-.3-.4-1.4-.4-2.3,0l-1.7.6c-.9.3-1.4.9-1,1.3l.6.7,5-1.9Z"/><path class="cls-24" d="m227.2,129.5s.2-2.2-.5-2.9c-.7-.7-3.4-.3-4.7-.8-1.5-.5-1.1,1.1-.4,1.5,1.6,1,4.6,1.2,5.6,2.1Z"/><g id="Boy"><path class="cls-2" d="m250.9,195c.4.1.6.9.8,2.6.1,1.1.5,2.5-1.2,3.4-1,.5-2.7.8-3.9,0-1.4-.9-1.9-2.9-3.6-4.3-1.5-1.2-3.9-2.3-4.7-4.1-.7-1.5-.7-3.6,1.8-3.5,3,.1,4.7,2.5,6.7,2.6,1.1,0,3.8,3.2,4.1,3.3Z"/><path class="cls-24" d="m250.9,194.1v1.8c0,.9-3.7,2.2-4.7.2,0-.2-.5-2.6-.5-2.6l5.2.7Z"/><path class="cls-2" d="m235,204.7s.7,0,.9,2.7c0,1,.3,3.1,0,3.9-.3.8-2.2,1.1-4.3,1.3-1.6.1-3,.9-4.5,1.7-1.3.8-3,1.2-4.5,1.2,0,0,0,0-.1,0-1.4,0-2.7-.2-4-.7-1-.4-2.1-1.1-2.4-2.2,0-.1,0-.3,0-.5,0-.3.2-.5.4-.7.2-.2.4-.3.7-.4,1.4-.7,2.9-1.3,4.3-2,1.4-.7,2.7-1.4,4-2.2.7-.4,1.3-.8,1.9-1.3.3-.2.6-.4.8-.6.1-.1.4-.6.6-.6,0,0,6.2.3,6.2.3Z"/><path class="cls-24" d="m234.9,202.7s0,1.3,0,2.1c0,.8-.9,1.9-3.3,1.8-1.7,0-2.8-.5-2.8-1.8v-2s6-.2,6-.2Z"/><path class="cls-22" d="m251.9,172.3c-.8-5.4-2-8.6-2-8.6,0,0,.6-7.4.8-14.5.3-7.6-.1-17-.6-21.6,0,0-23.9-2.3-24.3,6.5-.4,8.8,0,30.6,0,34.8s.5,7.7,1.2,14.9c.7,6.9,1.7,19.6,1.7,19.6,2.8,1.5,6.3-.2,6.3-.2,0,0,1.9-17.5,2.4-22,.6-5.2-1-9.5-1-9.5,0,0,.3-3.4,1.2-10.9.6-5.3,1.1-11.6,1.1-11.6,0,0,.5,8.6,1,12.7.5,3.8,1,5.4,2.5,12.9,1.4,7.3,3.1,19.4,3.1,19.4,2.8,1.5,5.6-.3,5.6-.3,0,0,1.7-16.5,1-21.9Z"/><path class="cls-27" d="m238.8,149.4l1.1-7.4s4.7-1.5,7-4.3c0,0-1.3,3.2-5.6,5l-1.7,6.2-.5,5.7-.3-5.3Z"/><path class="cls-26" d="m245.2,98c3.7-.9,6.1.9,7.5,6,1.2,4.4,2.9,13.4,3.6,16.7.2,1.2.7,2.7-1.9,4.2-5.2,3.1-11.7,5.9-11.7,5.9l-1.4-5.4,5.8-11.9-1.8-15.7Z"/><polygon class="cls-24" points="234.9 95.7 236 103.5 243.7 103.1 243.1 94 234.9 95.7"/><path class="cls-25" d="m229.8,86s-1.9,2.8-1.7,3.1c.2.3,1.6.6,1.6.6v-3.6Z"/><path class="cls-27" d="m230.4,87.8c-1.3,0-2.3-1.1-2.3-2.3,0-1.3,1.1-2.3,2.3-2.3,1.3,0,2.3,1.1,2.3,2.3,0,1.3-1.1,2.3-2.3,2.3Zm0-4.1c-1,0-1.8.8-1.8,1.8,0,1,.8,1.8,1.8,1.8,1,0,1.8-.8,1.8-1.8,0-1-.8-1.8-1.8-1.8Z"/><path class="cls-24" d="m235.1,78.3c-3.8.7-4.9,2.4-5.3,8.3-.5,6.2.1,8.2.9,9,.5.6,3.6.7,5.2.3,1.9-.5,6.3-2,8.4-5.1,2.5-3.6,3.2-8.6.6-10.7-3.6-2.9-8.3-2.2-9.9-1.9Z"/><path class="cls-25" d="m234.9,96.1c-1.6.2-3.8,0-4.2-.5,1.8.1,4-.8,4-.8l.2,1.3Z"/><path class="cls-27" d="m229,80.2c0,0,0,.2,0,.2.1.6.5,1,1,1.3.4.2.8.3,1.2.3.2,0,1.3,0,1.3,0-.1.4-.4.7-.4,1.2,0,.4.2.9.6,1.1.2.1.5.2.7.3.3.3.2.9.4,1.3,0,.1.9,1.3.9,1.1,0,0,.7-2.4,2.7-2.1,2,.3,2.3,2.9,1,4.5-1.3,1.6-2.5.9-2.5.9,0,0,0,3.4,1.5,5.4,0,0,1.7.6,4.9,0,2-.4,4.8-2.8,6-5.4,2.6-5.4,2.8-10.4-.7-11.9-.5-3.6-4.4-4.6-7.4-4.7-2,0-4,.1-6-.1-.9-.1-1.9-.3-2.8-.6-.6-.1-1.2-.3-1.8-.2-1.2.2-2.1,1.4-2.1,2.5,0,.6,0,1.3.3,1.8.3.6.7,1.1,1.3,1.4,0,0,0,0,0,0,0,0,0,0,0,.1,0,.4-.2.8-.2,1.2Z"/><path class="cls-27" d="m247.4,78.9l2.3-1.3c-.4-.6-1.2-.8-1.8-.5-.6.4-.8,1.1-.5,1.8Z"/><path class="cls-27" d="m234.8,88.4v-2.6c-.6,0-1.2.5-1.2,1.2,0,.7.5,1.3,1.2,1.4Z"/><polygon class="cls-27" points="228.4 85 235.3 86 235 86.5 228.4 85.5 228.4 85"/><path class="cls-22" d="m250.9,102.2c-.8-3.2-2-4.3-4.8-4.4-.8,0-3.7.4-4.3.6-.3,1.4-3.8,2.3-7.4,1.6-1.1.3-3.9,1.1-4.7,1.4-2.5.9-3.7,3.5-3.9,11.8,0,0-.5,19.7,0,23.1,6.4,2.5,13,2.4,16.6,1.6,7.6-1.7,8.5-4.9,8.5-4.9,0,0-.4-7.9-.7-13.9.4-3.8,1-6.7,1.2-9.8.2-3.1-.1-5.9-.4-7.1Z"/><path class="cls-24" d="m200.7,108.2c.2.2,1.9,1.6,2.7,2.2,0,0,1.5-6.4,1.5-6.4,0,0-.7-.6-.7-.7-.2-.3-.5-.5-.7-.8-.5-.7-.8-1.5-1.1-2.2-.4-.9-.8-1.6-1.4-2.4-.5-.7-1.1-1.5-1.6-2.2-.1-.1-.2-.3-.4-.4-.3,0-.6.1-.7.4-.1.3,0,.6,0,.8,0,.6.2,1.1.4,1.7.1.3.5,1.1-.3,1-.2,0-.4-.2-.6-.3-.9-.8-1.7-1.7-2.5-2.6-.3-.3-.5-.6-.8-.9s-.8-.3-1.1-.2c-.5.2-.7.7-.9,1.2-.2.6-.5,1.2-.5,1.9,0,.4,0,.8.2,1.2.4,1.6,1.3,3,2.4,4.2,1,1.1,1.8,1.8,3.1,2.6.3.2.7.4,1.2.7.7.4,1.1.6,1.9,1.2Z"/><path class="cls-24" d="m215.2,111.5l-11.4-8.4-2.2,5.6s7.6,7.2,11.3,10.4c1.6,1.4,3.3,1.1,5,.3,2.9-1.4,10.3-7.2,10.3-7.2,0,0,4-6.9,1.5-10.9,0,0-1.9.3-3.5,1.7-1.8,1.5-10.7,8.5-10.7,8.5"/><path class="cls-26" d="m230.1,101.2s-1.7-.2-3.5.8c-1.3.7-11.2,9.3-11.2,9.3l-8-5.7c-2.2.6-3.7,3.5-3.9,5.4,0,0,4.3,4,6.8,6.6,4.1,4.2,5.1,3.7,7.4,2.5,2.4-1.2,10.7-7.4,10.7-7.4,0,0,2.6-1.9,3.1-4.1,1.4-6-1.4-7.5-1.4-7.5Z"/><path class="cls-23" d="m215.4,111.3s-1.4,1-2.1,3.1c0,0-.2-2,1.5-3.6l.7.5Z"/><path class="cls-22" d="m207.4,105.6l-2-1.4s-1.4.7-2.6,2.3c-1.2,1.6-1.2,2.8-1.2,2.8l1.9,1.7c.8-2.1,2.1-4,3.9-5.4Z"/><path class="cls-2" d="m202.4,109.3c0,.2.3.3.5.2.2,0,.3-.3.2-.5,0-.2-.3-.3-.5-.2-.2,0-.3.3-.2.5Z"/><path class="cls-26" d="m243.2,96.2v.8c0,0-1,1.2-3.1,1.6-3.6.7-4.9-.5-4.9-.5v-.6c0,0-.4-.1-1,.3-.6.5-2.5,2.9-2.5,2.9,0,0,.7-.2,2.9.8,2.3,1,5.2.9,7,.3,1.8-.6,3.2-2.4,3.2-3,0-.7-1.1-2.8-1.7-2.5Z"/></g></g><path class="cls-26" d="m248.3,71.4c.2.2,4.9,4.6,3.8,9.5-1.1,4.9-2.2,5.9-2.2,5.9,0,0,.2.4.3.8,0,.4-1,1.5-1.6.9-3.9-5.5-10-9.5-17.1-13.5l-5.3-3.3c-1.6-.7-1.9-1.4-1-1.4.7,0,5.9.9,5.9.9h1.2c0-.1,4-1.8,4-1.8,0,0,0-.6.7-.6.8,0,7.3-.5,11.3,2.7Z"/><path class="cls-27" d="m232.2,71s0,0,.2.1c.2,0,.4.2.6.3.5.3,1.3.7,2.2,1.3,1.8,1.2,4.2,2.9,6.6,5.2,2.4,2.2,4.4,4.5,5.8,6.1.7.8,1.3,1.5,1.7,2,.2.2.3.4.4.5.1.1.2.2.2.2,0,0,0,0-.1-.2-.1-.1-.3-.3-.4-.5-.4-.5-.9-1.2-1.6-2-1.4-1.7-3.4-3.9-5.8-6.1-2.4-2.3-4.8-4-6.7-5.2-1.8-1.2-3-1.7-3-1.7Z"/><g class="cls-13"><path d="m251.8,76.8s-5.3-4.5-8.6-4.8c.1,0,.3,0,.4,0-1-.1-2.1-.3-3.1-.4-.5,0-1.1-.2-1.4-.6,0,0,2-.4,5,.2,2.9.6,7,2.6,7.8,5.5Z"/></g><path class="cls-27" d="m251.8,76.9s0-.2-.3-.7c-.2-.4-.6-1-1.2-1.6-.6-.6-1.3-1.3-2.3-1.9-1-.6-2.1-1.1-3.4-1.2-.6,0-1.3,0-1.9,0-.6,0-1.2,0-1.7,0-.6,0-1.1,0-1.6,0-.5,0-.9-.2-1.3-.5-1.4-.8-2.2-1.7-2-1.7,0,0,0,0,0,.2,0,.1.2.3.4.4.3.3.9.8,1.6,1.2.4.2.8.4,1.3.5.5,0,1,0,1.6,0,.5,0,1.1,0,1.7,0,.6,0,1.2,0,1.9,0,1.3.1,2.4.6,3.4,1.2,1,.6,1.7,1.2,2.3,1.8.6.6.9,1.2,1.2,1.6.1.2.2.4.3.5,0,.1,0,.2,0,.2Z"/><g class="cls-13"><path d="m251.6,82.9c-1-.6-1.7-1.4-2.6-2.2-1-.9-1.9-1.8-2.9-2.7-.7-.7-1.6-1.5-1.7-2.4-.3.4-.4.9-.3,1.4.1.5.9,1.5,1.3,1.9,2,2.1,3.4,3.6,5.9,5.3.1-.3.3-1.1.3-1.1"/></g><path class="cls-26" d="m252.2,80.4c.5.7.8,1.1.5,1.7-.3.5-.7,1-1.2.8-.2,0-.3-.2-.4-.3-2.1-1.9-4.2-3.9-6.4-5.8-.2-.2-.4-.4-.5-.7,0-.4.4-.8.8-.8.4,0,.9.2,1.3.4,2.2,1.3,4.1,2.9,5.9,4.7"/><path class="cls-27" d="m244.2,76.3s0-.2,0-.4c0-.3.3-.7.8-.7.5,0,1.1.2,1.6.6.6.4,1.2.8,1.8,1.3,1.3.9,2.3,1.9,3,2.6.4.4.6.7.8.9,0,0,.1.2.2.3,0,0,0,0,0,0,0,0,0,0,0,0,0,0-.1-.2-.2-.3-.2-.2-.4-.6-.8-.9-.7-.8-1.7-1.7-3-2.7-.6-.5-1.2-.9-1.8-1.3-.6-.4-1.2-.6-1.7-.5-.5,0-.8.5-.9.8,0,.1,0,.3,0,.3,0,0,0,.1,0,.1Z"/><polygon class="cls-2" points="234.9 69.8 239.5 72.5 238.4 73.5 233.5 70.5 234.9 69.8"/><path class="cls-27" d="m239.4,78s-1.8-1.5-4.1-3.4c-2.3-1.8-4.2-3.3-4.2-3.3,0,0,1.8,1.5,4.1,3.4,2.3,1.8,4.2,3.3,4.2,3.3Z"/></g><g id="text"><path class="cls-22" d="m129.5,41.3h166.6v8.5c0,8.2-6.6,14.8-14.8,14.8h-151.9v-23.3h0Z"/><path class="cls-21" d="m129.5,29.4h166.6v11.1c0,8.2-6.6,14.8-14.8,14.8h-151.9v-25.8h0Z"/><path d="m144.4,34.8h3.8v27.3h-3.8v-27.3Zm1.7,12.1h9.3c.7,0,1.4-.2,1.9-.5.6-.4,1-.8,1.3-1.5.3-.6.5-1.4.5-2.2s-.2-1.6-.5-2.2c-.3-.6-.7-1.1-1.3-1.5-.6-.4-1.2-.5-1.9-.5h-9.3v-3.6h9.2c1.6,0,3,.3,4.2,1s2.1,1.6,2.8,2.8c.7,1.2,1,2.6,1,4.1s-.3,2.9-1,4.1-1.6,2.1-2.8,2.8-2.6,1-4.1,1h-9.2v-3.6Zm7.4,2.8l3.8-.9,7,13.3h-4.5l-6.3-12.4Z"/><path d="m169.5,34.8h3.8v27.3h-3.8v-27.3Zm1.9,0h15.7v3.6h-15.7v-3.6Zm0,11.9h13.6v3.6h-13.6v-3.6Zm0,11.7h15.7v3.6h-15.7v-3.6Z"/><path d="m192.5,34.8h3.8v27.3h-3.8v-27.3Zm2,13.1h8.7c.8,0,1.6-.2,2.2-.6.6-.4,1.1-.9,1.5-1.7.3-.7.5-1.5.5-2.5s-.2-1.8-.5-2.5c-.3-.7-.8-1.3-1.5-1.7-.6-.4-1.4-.6-2.2-.6h-8.7v-3.6h8.6c1.6,0,3.1.3,4.3,1s2.2,1.7,2.9,2.9c.7,1.3,1,2.7,1,4.4s-.3,3.1-1,4.4c-.7,1.3-1.6,2.2-2.9,2.9s-2.7,1-4.3,1h-8.6v-3.6Z"/><path d="m220.1,61.2c-1.5-.8-2.6-2-3.4-3.5-.8-1.5-1.2-3.3-1.2-5.3v-7.7c0-2,.4-3.8,1.2-5.3.8-1.5,1.9-2.7,3.4-3.5,1.5-.8,3.1-1.2,5-1.2s3.6.4,5,1.2c1.5.8,2.6,2,3.4,3.5.8,1.5,1.2,3.3,1.2,5.3v7.7c0,2-.4,3.8-1.2,5.3-.8,1.5-1.9,2.7-3.4,3.5-1.5.8-3.1,1.2-5,1.2s-3.6-.4-5-1.2Zm8-3.3c.9-.5,1.5-1.2,2-2.2.5-.9.7-2,.7-3.2v-8c0-1.2-.2-2.3-.7-3.2-.5-.9-1.1-1.7-2-2.2-.9-.5-1.9-.8-3-.8s-2.1.3-3,.8c-.9.5-1.5,1.2-2,2.2-.5.9-.7,2-.7,3.2v8c0,1.2.2,2.3.7,3.2.5.9,1.1,1.7,2,2.2.9.5,1.9.8,3,.8s2.1-.3,3-.8Z"/><path d="m240.6,34.8h3.8v27.3h-3.8v-27.3Zm1.7,12.1h9.3c.7,0,1.4-.2,1.9-.5.6-.4,1-.8,1.3-1.5.3-.6.5-1.4.5-2.2s-.2-1.6-.5-2.2c-.3-.6-.7-1.1-1.3-1.5-.6-.4-1.2-.5-1.9-.5h-9.3v-3.6h9.2c1.6,0,3,.3,4.2,1s2.1,1.6,2.8,2.8c.7,1.2,1,2.6,1,4.1s-.3,2.9-1,4.1-1.6,2.1-2.8,2.8-2.6,1-4.1,1h-9.2v-3.6Zm7.4,2.8l3.8-.9,7,13.3h-4.5l-6.3-12.4Z"/><path d="m261.9,34.8h19.3v3.6h-19.3v-3.6Zm7.7,2.2h3.8v25.1h-3.8v-25.1Z"/></g></svg>